%TF.GenerationSoftware,KiCad,Pcbnew,(6.0.9)*%
%TF.CreationDate,2022-12-06T19:54:01+01:00*%
%TF.ProjectId,SEU-M_1.04,5345552d-4d5f-4312-9e30-342e6b696361,1.04*%
%TF.SameCoordinates,Original*%
%TF.FileFunction,Drillmap*%
%TF.FilePolarity,Positive*%
%FSLAX45Y45*%
G04 Gerber Fmt 4.5, Leading zero omitted, Abs format (unit mm)*
G04 Created by KiCad (PCBNEW (6.0.9)) date 2022-12-06 19:54:01*
%MOMM*%
%LPD*%
G01*
G04 APERTURE LIST*
%ADD10C,0.100000*%
%ADD11C,0.200000*%
G04 APERTURE END LIST*
D10*
X7720000Y-3375000D02*
X17720000Y-3375000D01*
X17720000Y-3375000D02*
X17720000Y-13375000D01*
X17720000Y-13375000D02*
X7720000Y-13375000D01*
X7720000Y-13375000D02*
X7720000Y-3375000D01*
D11*
X7972619Y-13690476D02*
X7972619Y-13490476D01*
X8020238Y-13490476D01*
X8048809Y-13500000D01*
X8067857Y-13519048D01*
X8077381Y-13538095D01*
X8086905Y-13576190D01*
X8086905Y-13604762D01*
X8077381Y-13642857D01*
X8067857Y-13661905D01*
X8048809Y-13680952D01*
X8020238Y-13690476D01*
X7972619Y-13690476D01*
X8172619Y-13690476D02*
X8172619Y-13557143D01*
X8172619Y-13595238D02*
X8182143Y-13576190D01*
X8191667Y-13566667D01*
X8210714Y-13557143D01*
X8229762Y-13557143D01*
X8296428Y-13690476D02*
X8296428Y-13557143D01*
X8296428Y-13490476D02*
X8286905Y-13500000D01*
X8296428Y-13509524D01*
X8305952Y-13500000D01*
X8296428Y-13490476D01*
X8296428Y-13509524D01*
X8420238Y-13690476D02*
X8401190Y-13680952D01*
X8391667Y-13661905D01*
X8391667Y-13490476D01*
X8525000Y-13690476D02*
X8505952Y-13680952D01*
X8496429Y-13661905D01*
X8496429Y-13490476D01*
X8753571Y-13690476D02*
X8753571Y-13490476D01*
X8820238Y-13633333D01*
X8886905Y-13490476D01*
X8886905Y-13690476D01*
X9067857Y-13690476D02*
X9067857Y-13585714D01*
X9058333Y-13566667D01*
X9039286Y-13557143D01*
X9001190Y-13557143D01*
X8982143Y-13566667D01*
X9067857Y-13680952D02*
X9048810Y-13690476D01*
X9001190Y-13690476D01*
X8982143Y-13680952D01*
X8972619Y-13661905D01*
X8972619Y-13642857D01*
X8982143Y-13623809D01*
X9001190Y-13614286D01*
X9048810Y-13614286D01*
X9067857Y-13604762D01*
X9163095Y-13557143D02*
X9163095Y-13757143D01*
X9163095Y-13566667D02*
X9182143Y-13557143D01*
X9220238Y-13557143D01*
X9239286Y-13566667D01*
X9248810Y-13576190D01*
X9258333Y-13595238D01*
X9258333Y-13652381D01*
X9248810Y-13671428D01*
X9239286Y-13680952D01*
X9220238Y-13690476D01*
X9182143Y-13690476D01*
X9163095Y-13680952D01*
X9344048Y-13671428D02*
X9353571Y-13680952D01*
X9344048Y-13690476D01*
X9334524Y-13680952D01*
X9344048Y-13671428D01*
X9344048Y-13690476D01*
X9344048Y-13566667D02*
X9353571Y-13576190D01*
X9344048Y-13585714D01*
X9334524Y-13576190D01*
X9344048Y-13566667D01*
X9344048Y-13585714D01*
M02*
