%TF.GenerationSoftware,KiCad,Pcbnew,(6.0.9)*%
%TF.CreationDate,2022-12-06T19:52:46+01:00*%
%TF.ProjectId,SEU-M_1.04,5345552d-4d5f-4312-9e30-342e6b696361,1.04*%
%TF.SameCoordinates,Original*%
%TF.FileFunction,Soldermask,Top*%
%TF.FilePolarity,Negative*%
%FSLAX46Y46*%
G04 Gerber Fmt 4.6, Leading zero omitted, Abs format (unit mm)*
G04 Created by KiCad (PCBNEW (6.0.9)) date 2022-12-06 19:52:46*
%MOMM*%
%LPD*%
G01*
G04 APERTURE LIST*
G04 Aperture macros list*
%AMRoundRect*
0 Rectangle with rounded corners*
0 $1 Rounding radius*
0 $2 $3 $4 $5 $6 $7 $8 $9 X,Y pos of 4 corners*
0 Add a 4 corners polygon primitive as box body*
4,1,4,$2,$3,$4,$5,$6,$7,$8,$9,$2,$3,0*
0 Add four circle primitives for the rounded corners*
1,1,$1+$1,$2,$3*
1,1,$1+$1,$4,$5*
1,1,$1+$1,$6,$7*
1,1,$1+$1,$8,$9*
0 Add four rect primitives between the rounded corners*
20,1,$1+$1,$2,$3,$4,$5,0*
20,1,$1+$1,$4,$5,$6,$7,0*
20,1,$1+$1,$6,$7,$8,$9,0*
20,1,$1+$1,$8,$9,$2,$3,0*%
G04 Aperture macros list end*
%ADD10C,1.675000*%
%ADD11C,2.075000*%
%ADD12C,1.400000*%
%ADD13R,1.800000X1.800000*%
%ADD14C,1.800000*%
%ADD15C,3.800000*%
%ADD16C,2.400000*%
%ADD17C,3.200000*%
%ADD18C,2.000000*%
%ADD19R,1.700000X1.700000*%
%ADD20O,1.700000X1.700000*%
%ADD21C,1.600000*%
%ADD22RoundRect,0.250000X0.625000X-0.350000X0.625000X0.350000X-0.625000X0.350000X-0.625000X-0.350000X0*%
%ADD23O,1.750000X1.200000*%
%ADD24R,2.000000X2.000000*%
%ADD25C,3.600000*%
%ADD26O,1.600000X1.600000*%
%ADD27R,1.600000X1.600000*%
%ADD28R,2.200000X2.200000*%
%ADD29O,2.200000X2.200000*%
%ADD30C,1.700000*%
%ADD31O,1.600000X2.000000*%
%ADD32C,1.500000*%
%ADD33RoundRect,0.250000X-0.845000X0.620000X-0.845000X-0.620000X0.845000X-0.620000X0.845000X0.620000X0*%
%ADD34O,2.190000X1.740000*%
%ADD35RoundRect,0.250000X0.845000X-0.620000X0.845000X0.620000X-0.845000X0.620000X-0.845000X-0.620000X0*%
G04 APERTURE END LIST*
D10*
X123065216Y-86385400D02*
G75*
G03*
X123065216Y-86385400I-837500J0D01*
G01*
X153027500Y-72085200D02*
G75*
G03*
X153027500Y-72085200I-837500J0D01*
G01*
X95027500Y-72059800D02*
G75*
G03*
X95027500Y-72059800I-837500J0D01*
G01*
D11*
X174360500Y-83693000D02*
G75*
G03*
X174360500Y-83693000I-1037500J0D01*
G01*
D12*
%TO.C,M6*%
X107950000Y-53975000D03*
D13*
X110490000Y-45720000D03*
X110490000Y-53975000D03*
X102870000Y-49530000D03*
X103505000Y-52070000D03*
X120650000Y-45720000D03*
X105410000Y-50800000D03*
D14*
X102870000Y-41910000D03*
X120650000Y-48260000D03*
X122555000Y-39370000D03*
X113030000Y-45720000D03*
X113030000Y-53975000D03*
X123190000Y-41910000D03*
X120650000Y-40640000D03*
X105410000Y-40640000D03*
X103505000Y-39370000D03*
D15*
X113030000Y-40005000D03*
D14*
X123190000Y-49530000D03*
X115570000Y-45720000D03*
X122555000Y-52070000D03*
X115570000Y-53975000D03*
X120650000Y-50800000D03*
%TD*%
%TO.C,M4*%
X107950000Y-103520000D03*
X110490000Y-103520000D03*
X113030000Y-103520000D03*
X115570000Y-103520000D03*
X118110000Y-103520000D03*
X115570000Y-88280000D03*
X113030000Y-88280000D03*
X110490000Y-88280000D03*
X107950000Y-88280000D03*
D16*
X115570000Y-95900000D03*
%TD*%
D13*
%TO.C,M2*%
X149860000Y-76200000D03*
D14*
X147320000Y-76200000D03*
X144780000Y-76200000D03*
X142240000Y-76200000D03*
X139700000Y-76200000D03*
X137160000Y-76200000D03*
X134620000Y-76200000D03*
X132080000Y-76200000D03*
X129540000Y-76200000D03*
X127000000Y-76200000D03*
X124460000Y-76200000D03*
X121920000Y-76200000D03*
X119380000Y-76200000D03*
X116840000Y-76200000D03*
X114300000Y-76200000D03*
X111760000Y-76200000D03*
X109220000Y-76200000D03*
X106680000Y-76200000D03*
X104140000Y-76200000D03*
X101600000Y-76200000D03*
X101600000Y-93980000D03*
X104140000Y-93980000D03*
X106680000Y-93980000D03*
X109220000Y-93980000D03*
X111760000Y-93980000D03*
X114300000Y-93980000D03*
X116840000Y-93980000D03*
X119380000Y-93980000D03*
X121920000Y-93980000D03*
X124460000Y-93980000D03*
X127000000Y-93980000D03*
X129540000Y-93980000D03*
X132080000Y-93980000D03*
X134620000Y-93980000D03*
X137160000Y-93980000D03*
X139700000Y-93980000D03*
X142240000Y-93980000D03*
X144780000Y-93980000D03*
X147320000Y-93980000D03*
X149860000Y-93980000D03*
%TD*%
D13*
%TO.C,M1*%
X99060000Y-119380000D03*
D14*
X99060000Y-121920000D03*
X101600000Y-119380000D03*
X101600000Y-121920000D03*
X104140000Y-119380000D03*
D17*
X94190000Y-97960000D03*
X152190000Y-97960000D03*
X152190000Y-120960000D03*
D14*
X104140000Y-121920000D03*
D17*
X94190000Y-120960000D03*
D14*
X106680000Y-119380000D03*
X106680000Y-121920000D03*
X109220000Y-119380000D03*
X109220000Y-121920000D03*
X111760000Y-119380000D03*
X111760000Y-121920000D03*
X114300000Y-119380000D03*
X114300000Y-121920000D03*
X116840000Y-119380000D03*
X116840000Y-121920000D03*
X119380000Y-119380000D03*
X119380000Y-121920000D03*
X121920000Y-119380000D03*
X121920000Y-121920000D03*
X124460000Y-119380000D03*
X124460000Y-121920000D03*
X127000000Y-119380000D03*
X127000000Y-121920000D03*
X129540000Y-119380000D03*
X129540000Y-121920000D03*
X132080000Y-119380000D03*
X132080000Y-121920000D03*
X134620000Y-119380000D03*
X134620000Y-121920000D03*
X137160000Y-119380000D03*
X137160000Y-121920000D03*
X139700000Y-119380000D03*
X139700000Y-121920000D03*
X142240000Y-119380000D03*
X142240000Y-121920000D03*
X144780000Y-119380000D03*
X144780000Y-121920000D03*
X147320000Y-119380000D03*
X147320000Y-121920000D03*
D13*
X147320000Y-116840000D03*
D14*
X144780000Y-116840000D03*
D13*
X144780000Y-114300000D03*
D14*
X147320000Y-114300000D03*
%TD*%
D13*
%TO.C,D4*%
X152400000Y-128270000D03*
D14*
X154940000Y-128270000D03*
X157480000Y-128270000D03*
%TD*%
D18*
%TO.C,SW2*%
X161290000Y-120015000D03*
X167790000Y-120015000D03*
X161290000Y-115515000D03*
X167790000Y-115515000D03*
%TD*%
D13*
%TO.C,D6*%
X93980000Y-128270000D03*
D14*
X96520000Y-128270000D03*
%TD*%
D19*
%TO.C,J13*%
X105410000Y-128270000D03*
D20*
X102870000Y-128270000D03*
X100330000Y-128270000D03*
%TD*%
D18*
%TO.C,SW1*%
X161290000Y-125040000D03*
X167790000Y-125040000D03*
X167790000Y-129540000D03*
X161290000Y-129540000D03*
%TD*%
D21*
%TO.C,C11*%
X97790000Y-124206000D03*
X102790000Y-124206000D03*
%TD*%
D22*
%TO.C,J2*%
X166370000Y-59880000D03*
D23*
X166370000Y-57880000D03*
X166370000Y-55880000D03*
X166370000Y-53880000D03*
%TD*%
D24*
%TO.C,J1*%
X84270000Y-121250000D03*
D18*
X86770000Y-118750000D03*
X84270000Y-116250000D03*
D25*
X81770000Y-126250000D03*
X81770000Y-41250000D03*
D18*
X86770000Y-113750000D03*
X84270000Y-111250000D03*
X86770000Y-108750000D03*
X84270000Y-106250000D03*
X86770000Y-103750000D03*
D24*
X84270000Y-101250000D03*
D18*
X86770000Y-98750000D03*
X84270000Y-96250000D03*
X86770000Y-93750000D03*
X84270000Y-91250000D03*
X86770000Y-88750000D03*
X84270000Y-86250000D03*
X86770000Y-83750000D03*
X84270000Y-81250000D03*
X86770000Y-78750000D03*
X84270000Y-76250000D03*
X86770000Y-73750000D03*
X84270000Y-71250000D03*
X86770000Y-68750000D03*
X84270000Y-66250000D03*
X86770000Y-63750000D03*
X84270000Y-61250000D03*
X86770000Y-58750000D03*
X84270000Y-56250000D03*
X86770000Y-53750000D03*
X84270000Y-51250000D03*
X86770000Y-48750000D03*
X84270000Y-46250000D03*
%TD*%
D21*
%TO.C,C3*%
X163830000Y-43180000D03*
X168830000Y-43180000D03*
%TD*%
%TO.C,R13*%
X151130000Y-50800000D03*
D26*
X161290000Y-50800000D03*
%TD*%
D27*
%TO.C,U1*%
X127000000Y-50800000D03*
D26*
X129540000Y-50800000D03*
X132080000Y-50800000D03*
X134620000Y-50800000D03*
X137160000Y-50800000D03*
X139700000Y-50800000D03*
X142240000Y-50800000D03*
X144780000Y-50800000D03*
X147320000Y-50800000D03*
X147320000Y-43180000D03*
X144780000Y-43180000D03*
X142240000Y-43180000D03*
X139700000Y-43180000D03*
X137160000Y-43180000D03*
X134620000Y-43180000D03*
X132080000Y-43180000D03*
X129540000Y-43180000D03*
X127000000Y-43180000D03*
%TD*%
D21*
%TO.C,C2*%
X163830000Y-40640000D03*
X168830000Y-40640000D03*
%TD*%
%TO.C,R11*%
X151130000Y-55880000D03*
D26*
X161290000Y-55880000D03*
%TD*%
D21*
%TO.C,C19*%
X130810000Y-59817000D03*
X125810000Y-59817000D03*
%TD*%
D28*
%TO.C,D3*%
X92710000Y-49530000D03*
D29*
X92710000Y-59690000D03*
%TD*%
D21*
%TO.C,C12*%
X148590000Y-40640000D03*
X143590000Y-40640000D03*
%TD*%
%TO.C,C1*%
X163830000Y-38100000D03*
X168830000Y-38100000D03*
%TD*%
D24*
%TO.C,J6*%
X86995000Y-38100000D03*
%TD*%
D20*
%TO.C,J8*%
X114315000Y-128270000D03*
D19*
X111775000Y-128270000D03*
D30*
X109235000Y-128270000D03*
%TD*%
D21*
%TO.C,C16*%
X145970000Y-57150000D03*
X140970000Y-57150000D03*
%TD*%
D13*
%TO.C,M5*%
X109347000Y-113411000D03*
D31*
X111887000Y-113411000D03*
X114427000Y-113411000D03*
X116967000Y-113411000D03*
X119507000Y-113411000D03*
X122047000Y-113411000D03*
X124587000Y-113411000D03*
X127127000Y-113411000D03*
X127127000Y-90551000D03*
X124587000Y-90551000D03*
X122047000Y-90551000D03*
X119507000Y-90551000D03*
X116967000Y-90551000D03*
X114427000Y-90551000D03*
X111887000Y-90551000D03*
X109347000Y-90551000D03*
%TD*%
D21*
%TO.C,R12*%
X151130000Y-53340000D03*
D26*
X161290000Y-53340000D03*
%TD*%
D21*
%TO.C,C20*%
X129540000Y-88900000D03*
X134540000Y-88900000D03*
%TD*%
%TO.C,R17*%
X170815000Y-66040000D03*
D26*
X160655000Y-66040000D03*
%TD*%
D21*
%TO.C,C4*%
X163830000Y-45720000D03*
X168830000Y-45720000D03*
%TD*%
%TO.C,R3*%
X161290000Y-43180000D03*
D26*
X151130000Y-43180000D03*
%TD*%
D32*
%TO.C,TP1*%
X94742000Y-64770000D03*
%TD*%
D33*
%TO.C,J12*%
X86995000Y-43180000D03*
D34*
X86995000Y-45720000D03*
%TD*%
D21*
%TO.C,R2*%
X161290000Y-40640000D03*
D26*
X151130000Y-40640000D03*
%TD*%
D35*
%TO.C,J10*%
X173355000Y-121285000D03*
D34*
X173355000Y-118745000D03*
X173355000Y-116205000D03*
X173355000Y-113665000D03*
X173355000Y-111125000D03*
X173355000Y-108585000D03*
X173355000Y-106045000D03*
X173355000Y-103505000D03*
%TD*%
D21*
%TO.C,C13*%
X102870000Y-57150000D03*
X107870000Y-57150000D03*
%TD*%
D19*
%TO.C,J5*%
X130810000Y-129540000D03*
D20*
X130810000Y-127000000D03*
X133350000Y-129540000D03*
X133350000Y-127000000D03*
X135890000Y-129540000D03*
X135890000Y-127000000D03*
X138430000Y-129540000D03*
X138430000Y-127000000D03*
X140970000Y-129540000D03*
X140970000Y-127000000D03*
X143510000Y-129540000D03*
X143510000Y-127000000D03*
X146050000Y-129540000D03*
X146050000Y-127000000D03*
X148590000Y-129540000D03*
X148590000Y-127000000D03*
%TD*%
D32*
%TO.C,TP3*%
X92075000Y-64770000D03*
%TD*%
D35*
%TO.C,J4*%
X173355000Y-48260000D03*
D34*
X173355000Y-45720000D03*
X173355000Y-43180000D03*
X173355000Y-40640000D03*
X173355000Y-38100000D03*
%TD*%
D35*
%TO.C,J11*%
X173355000Y-98425000D03*
D34*
X173355000Y-95885000D03*
X173355000Y-93345000D03*
X173355000Y-90805000D03*
X173355000Y-88265000D03*
%TD*%
D27*
%TO.C,U2*%
X104140000Y-67310000D03*
D26*
X106680000Y-67310000D03*
X109220000Y-67310000D03*
X111760000Y-67310000D03*
X114300000Y-67310000D03*
X116840000Y-67310000D03*
X119380000Y-67310000D03*
X119380000Y-59690000D03*
X116840000Y-59690000D03*
X114300000Y-59690000D03*
X111760000Y-59690000D03*
X109220000Y-59690000D03*
X106680000Y-59690000D03*
X104140000Y-59690000D03*
%TD*%
D21*
%TO.C,R10*%
X117475000Y-129540000D03*
D26*
X127635000Y-129540000D03*
%TD*%
D13*
%TO.C,D5*%
X88900000Y-128270000D03*
D14*
X91440000Y-128270000D03*
%TD*%
D21*
%TO.C,C14*%
X123190000Y-78740000D03*
X128190000Y-78740000D03*
%TD*%
D32*
%TO.C,TP5*%
X92837000Y-102108000D03*
%TD*%
D21*
%TO.C,C15*%
X102870000Y-69850000D03*
X107870000Y-69850000D03*
%TD*%
%TO.C,R7*%
X140970000Y-38100000D03*
D26*
X130810000Y-38100000D03*
%TD*%
D21*
%TO.C,R8*%
X146050000Y-69850000D03*
D26*
X135890000Y-69850000D03*
%TD*%
D21*
%TO.C,C17*%
X141050000Y-96520000D03*
X146050000Y-96520000D03*
%TD*%
%TO.C,C5*%
X148590000Y-38100000D03*
X143590000Y-38100000D03*
%TD*%
D28*
%TO.C,D2*%
X95885000Y-49530000D03*
D29*
X95885000Y-59690000D03*
%TD*%
D13*
%TO.C,M3*%
X167640000Y-81280000D03*
D14*
X165100000Y-81280000D03*
X162560000Y-81280000D03*
X160020000Y-81280000D03*
X157480000Y-81280000D03*
X154940000Y-81280000D03*
X152400000Y-81280000D03*
X149860000Y-81280000D03*
X147320000Y-81280000D03*
X144780000Y-81280000D03*
X142240000Y-81280000D03*
X139700000Y-81280000D03*
X137160000Y-81280000D03*
X134620000Y-81280000D03*
X132080000Y-81280000D03*
X129540000Y-81280000D03*
X127000000Y-81280000D03*
X124460000Y-81280000D03*
X121920000Y-81280000D03*
X167640000Y-104140000D03*
X165100000Y-104140000D03*
X162560000Y-104140000D03*
X160020000Y-104140000D03*
X157480000Y-104140000D03*
X154940000Y-104140000D03*
X152400000Y-104140000D03*
X149860000Y-104140000D03*
X147320000Y-104140000D03*
X144780000Y-104140000D03*
X142240000Y-104140000D03*
X139700000Y-104140000D03*
X137160000Y-104140000D03*
X134620000Y-104140000D03*
X132080000Y-104140000D03*
X129540000Y-104140000D03*
X127000000Y-104140000D03*
X124460000Y-104140000D03*
X121920000Y-104140000D03*
%TD*%
D27*
%TO.C,C10*%
X127064888Y-55372000D03*
D21*
X129564888Y-55372000D03*
%TD*%
%TO.C,C9*%
X161925000Y-63500000D03*
X166925000Y-63500000D03*
%TD*%
%TO.C,C21*%
X110450000Y-83820000D03*
X105450000Y-83820000D03*
%TD*%
D28*
%TO.C,D1*%
X99060000Y-49530000D03*
D29*
X99060000Y-59690000D03*
%TD*%
D21*
%TO.C,R16*%
X93980000Y-104140000D03*
D26*
X93980000Y-114300000D03*
%TD*%
D32*
%TO.C,TP2*%
X97028000Y-68580000D03*
%TD*%
D35*
%TO.C,J3*%
X173355000Y-60960000D03*
D34*
X173355000Y-58420000D03*
X173355000Y-55880000D03*
X173355000Y-53340000D03*
%TD*%
D21*
%TO.C,R5*%
X148590000Y-53340000D03*
D26*
X138430000Y-53340000D03*
%TD*%
D35*
%TO.C,J7*%
X173355000Y-128905000D03*
D34*
X173355000Y-126365000D03*
%TD*%
D35*
%TO.C,J9*%
X127000000Y-40640000D03*
D34*
X127000000Y-38100000D03*
%TD*%
D21*
%TO.C,R4*%
X161290000Y-45720000D03*
D26*
X151130000Y-45720000D03*
%TD*%
D21*
%TO.C,R15*%
X91440000Y-104140000D03*
D26*
X91440000Y-114300000D03*
%TD*%
D21*
%TO.C,R14*%
X151130000Y-48260000D03*
D26*
X161290000Y-48260000D03*
%TD*%
D13*
%TO.C,D7*%
X173355000Y-68580000D03*
D14*
X173355000Y-66040000D03*
%TD*%
D21*
%TO.C,C8*%
X123110000Y-57150000D03*
X118110000Y-57150000D03*
%TD*%
D27*
%TO.C,U3*%
X139700000Y-67310000D03*
D26*
X142240000Y-67310000D03*
X144780000Y-67310000D03*
X147320000Y-67310000D03*
X149860000Y-67310000D03*
X152400000Y-67310000D03*
X154940000Y-67310000D03*
X154940000Y-59690000D03*
X152400000Y-59690000D03*
X149860000Y-59690000D03*
X147320000Y-59690000D03*
X144780000Y-59690000D03*
X142240000Y-59690000D03*
X139700000Y-59690000D03*
%TD*%
D27*
%TO.C,C6*%
X97165614Y-44145000D03*
X96494677Y-42545000D03*
D21*
X93994677Y-42545000D03*
X93323740Y-40945000D03*
%TD*%
D26*
%TO.C,R9*%
X127635000Y-127000000D03*
D21*
X117475000Y-127000000D03*
%TD*%
%TO.C,C7*%
X115490000Y-57150000D03*
X110490000Y-57150000D03*
%TD*%
%TO.C,R1*%
X161290000Y-38100000D03*
D26*
X151130000Y-38100000D03*
%TD*%
D32*
%TO.C,TP6*%
X90678000Y-102108000D03*
%TD*%
D21*
%TO.C,R6*%
X140970000Y-40640000D03*
D26*
X130810000Y-40640000D03*
%TD*%
D32*
%TO.C,TP4*%
X126111000Y-65532000D03*
%TD*%
D21*
%TO.C,C18*%
X104013000Y-72771000D03*
X99013000Y-72771000D03*
%TD*%
M02*
