M48
; DRILL file {KiCad (6.0.9)} date Tue Dec  6 19:37:46 2022
; FORMAT={-:-/ absolute / inch / decimal}
; #@! TF.CreationDate,2022-12-06T19:37:46+01:00
; #@! TF.GenerationSoftware,Kicad,Pcbnew,(6.0.9)
; #@! TF.FileFunction,Plated,1,2,PTH
FMAT,2
INCH
; #@! TA.AperFunction,Plated,PTH,ViaDrill
T1C0.0157
; #@! TA.AperFunction,Plated,PTH,ViaDrill
T2C0.0197
; #@! TA.AperFunction,Plated,PTH,ComponentDrill
T3C0.0295
; #@! TA.AperFunction,Plated,PTH,ComponentDrill
T4C0.0315
; #@! TA.AperFunction,Plated,PTH,ViaDrill
T5C0.0354
; #@! TA.AperFunction,Plated,PTH,ComponentDrill
T6C0.0354
; #@! TA.AperFunction,Plated,PTH,ComponentDrill
T7C0.0394
; #@! TA.AperFunction,Plated,PTH,ComponentDrill
T8C0.0433
; #@! TA.AperFunction,Plated,PTH,ComponentDrill
T9C0.0469
; #@! TA.AperFunction,Plated,PTH,ComponentDrill
T10C0.0472
; #@! TA.AperFunction,Plated,PTH,ComponentDrill
T11C0.0787
; #@! TA.AperFunction,Plated,PTH,ViaDrill
T12C0.1063
; #@! TA.AperFunction,Plated,PTH,ComponentDrill
T13C0.1063
; #@! TA.AperFunction,Plated,PTH,ComponentDrill
T14C0.1181
; #@! TA.AperFunction,Plated,PTH,ViaDrill
T15C0.1260
; #@! TA.AperFunction,Plated,PTH,ComponentDrill
T16C0.1260
%
G90
G05
T1
X3.1Y-1.4
X3.1Y-1.825
X3.1Y-2.8
X3.1Y-4.0
X3.1Y-4.775
X3.1Y-5.2
X3.4666Y-2.4073
X3.475Y-1.4
X3.5Y-2.485
X3.5117Y-3.9967
X3.5179Y-1.75
X3.5326Y-4.76
X3.535Y-2.17
X3.55Y-2.525
X3.555Y-2.025
X3.5689Y-3.4
X3.575Y-2.35
X3.5887Y-3.4514
X3.6082Y-3.705
X3.6124Y-1.75
X3.62Y-2.1
X3.6214Y-2.4823
X3.6639Y-1.525
X3.6681Y-2.6681
X3.725Y-2.68
X3.75Y-2.6287
X3.7888Y-3.455
X3.7888Y-4.57
X3.825Y-2.75
X3.84Y-3.175
X3.8426Y-2.4829
X3.8488Y-2.805
X3.8912Y-3.455
X3.8912Y-3.855
X3.8912Y-4.57
X3.9122Y-3.264
X3.9512Y-2.695
X3.952Y-3.136
X3.985Y-1.885
X3.985Y-2.015
X4.0Y-2.3
X4.025Y-1.4
X4.075Y-3.875
X4.075Y-5.2
X4.11Y-2.715
X4.1374Y-4.5626
X4.145Y-2.41
X4.15Y-4.65
X4.15Y-4.85
X4.1605Y-4.2489
X4.2Y-4.2874
X4.22Y-2.895
X4.275Y-1.65
X4.275Y-1.925
X4.285Y-2.81
X4.2973Y-3.412
X4.35Y-4.375
X4.35Y-4.65
X4.3626Y-4.5626
X4.3796Y-4.2126
X4.4Y-2.75
X4.4347Y-4.2126
X4.45Y-1.925
X4.45Y-4.85
X4.475Y-3.35
X4.525Y-2.835
X4.6Y-3.275
X4.6146Y-3.138
X4.6205Y-2.8455
X4.625Y-1.6488
X4.625Y-1.925
X4.649Y-3.095
X4.65Y-4.325
X4.69Y-2.805
X4.6924Y-3.1367
X4.695Y-3.275
X4.7374Y-4.9321
X4.775Y-2.4126
X4.8Y-2.745
X4.85Y-2.45
X4.85Y-3.775
X4.85Y-4.15
X4.85Y-4.325
X4.85Y-4.85
X4.895Y-2.01
X4.9Y-2.425
X4.915Y-2.71
X4.925Y-1.85
X4.95Y-1.4
X4.95Y-2.9
X4.95Y-4.645
X4.9526Y-3.28
X5.0Y-3.775
X5.025Y-4.575
X5.04Y-2.5582
X5.05Y-3.3
X5.0512Y-2.3679
X5.075Y-3.6162
X5.075Y-5.05
X5.08Y-2.47
X5.1Y-4.3071
X5.1Y-5.2
X5.105Y-2.924
X5.19Y-2.923
X5.2Y-4.5
X5.225Y-2.2
X5.2286Y-2.3679
X5.24Y-1.8
X5.24Y-1.9
X5.2419Y-2.6245
X5.25Y-3.825
X5.293Y-3.774
X5.2949Y-2.6048
X5.295Y-3.97
X5.3Y-2.925
X5.35Y-2.5924
X5.375Y-4.3071
X5.3817Y-2.6374
X5.425Y-2.225
X5.44Y-2.465
X5.45Y-2.775
X5.475Y-4.5
X5.5Y-2.525
X5.53Y-1.795
X5.53Y-1.9
X5.55Y-2.57
X5.55Y-3.38
X5.555Y-2.47
X5.7488Y-3.6162
X5.75Y-3.5138
X5.825Y-4.325
X5.855Y-3.6063
X5.875Y-1.4
X5.89Y-1.75
X5.925Y-4.2874
X5.975Y-4.2624
X6.0Y-5.2
X6.005Y-1.75
X6.0348Y-4.2624
X6.0404Y-4.1876
X6.0496Y-3.4054
X6.07Y-1.985
X6.075Y-2.25
X6.1Y-4.1876
X6.15Y-2.565
X6.1508Y-4.4427
X6.155Y-2.465
X6.175Y-4.8
X6.2376Y-3.4048
X6.2472Y-3.8238
X6.2508Y-4.4234
X6.27Y-2.185
X6.3Y-2.5
X6.3Y-2.675
X6.35Y-4.4033
X6.45Y-4.375
X6.475Y-2.1
X6.475Y-2.27
X6.475Y-2.425
X6.475Y-3.5237
X6.475Y-3.6063
X6.5Y-4.35
X6.625Y-3.65
X6.625Y-4.2
X6.65Y-3.925
X6.675Y-2.05
X6.675Y-2.15
X6.6799Y-2.247
X6.68Y-2.345
X6.75Y-3.925
X6.875Y-1.4
X6.875Y-2.0
X6.875Y-2.775
X6.875Y-3.075
X6.875Y-3.975
X6.875Y-4.875
X6.875Y-5.2
T2
X4.0Y-4.25
X4.05Y-4.75
X4.243Y-3.814
X4.25Y-4.9124
X4.251Y-3.621
X4.279Y-4.154
X4.304Y-3.144
X4.3402Y-4.9348
X4.35Y-4.75
X4.394Y-3.144
X4.405Y-3.406
X4.45Y-4.9321
X4.456Y-3.938
X4.525Y-4.15
X4.6279Y-3.9124
X4.65Y-4.75
X4.688Y-3.913
X4.75Y-4.651
X4.755Y-4.52
X4.95Y-4.75
X5.165Y-3.51
X5.21Y-3.969
X5.295Y-3.34
X5.3874Y-4.8929
X5.4425Y-4.8929
X5.45Y-4.65
X5.85Y-4.75
T3
X6.55Y-2.1213
X6.55Y-2.2
X6.55Y-2.2787
X6.55Y-2.3575
T4
X3.6Y-4.1
X3.6Y-4.5
X3.6742Y-1.612
X3.7Y-4.1
X3.7Y-4.5
X3.7006Y-1.675
X3.799Y-1.675
X3.8254Y-1.738
X3.85Y-4.89
X3.8981Y-2.865
X4.0469Y-4.89
X4.05Y-2.25
X4.05Y-2.75
X4.095Y-2.865
X4.1Y-2.35
X4.1Y-2.65
X4.1516Y-3.3
X4.2Y-2.35
X4.2Y-2.65
X4.2469Y-2.25
X4.2469Y-2.75
X4.3Y-2.35
X4.3Y-2.65
X4.3484Y-3.3
X4.35Y-2.25
X4.4Y-2.35
X4.4Y-2.65
X4.5Y-2.35
X4.5Y-2.65
X4.5469Y-2.25
X4.6Y-2.35
X4.6Y-2.65
X4.625Y-5.0
X4.625Y-5.1
X4.65Y-2.25
X4.7Y-2.35
X4.7Y-2.65
X4.8469Y-2.25
X4.85Y-3.1
X4.9531Y-2.355
X5.0Y-1.7
X5.0Y-2.0
X5.0026Y-2.18
X5.025Y-5.0
X5.025Y-5.1
X5.0469Y-3.1
X5.1Y-1.7
X5.1Y-2.0
X5.1Y-3.5
X5.101Y-2.18
X5.15Y-1.5
X5.15Y-1.6
X5.15Y-2.355
X5.2Y-1.7
X5.2Y-2.0
X5.2969Y-3.5
X5.3Y-1.7
X5.3Y-2.0
X5.35Y-2.75
X5.4Y-1.7
X5.4Y-2.0
X5.45Y-2.1
X5.5Y-1.7
X5.5Y-2.0
X5.5Y-2.35
X5.5Y-2.65
X5.55Y-1.5
X5.55Y-1.6
X5.55Y-2.25
X5.5531Y-3.8
X5.6Y-1.7
X5.6Y-2.0
X5.6Y-2.35
X5.6Y-2.65
X5.6531Y-1.5
X5.6531Y-1.6
X5.7Y-1.7
X5.7Y-2.0
X5.7Y-2.35
X5.7Y-2.65
X5.7469Y-2.25
X5.75Y-2.75
X5.75Y-3.8
X5.8Y-1.7
X5.8Y-2.0
X5.8Y-2.35
X5.8Y-2.65
X5.85Y-1.5
X5.85Y-1.6
X5.85Y-2.1
X5.9Y-2.35
X5.9Y-2.65
X5.95Y-1.5
X5.95Y-1.6
X5.95Y-1.7
X5.95Y-1.8
X5.95Y-1.9
X5.95Y-2.0
X5.95Y-2.1
X5.95Y-2.2
X6.0Y-2.35
X6.0Y-2.65
X6.1Y-2.35
X6.1Y-2.65
X6.325Y-2.6
X6.35Y-1.5
X6.35Y-1.6
X6.35Y-1.7
X6.35Y-1.8
X6.35Y-1.9
X6.35Y-2.0
X6.35Y-2.1
X6.35Y-2.2
X6.375Y-2.5
X6.45Y-1.5
X6.45Y-1.6
X6.45Y-1.7
X6.45Y-1.8
X6.5719Y-2.5
X6.6469Y-1.5
X6.6469Y-1.6
X6.6469Y-1.7
X6.6469Y-1.8
X6.725Y-2.6
T5
X3.9Y-3.2
X3.9004Y-2.525
X3.955Y-2.525
X3.955Y-3.2
X4.95Y-2.525
X5.0Y-2.5
T6
X3.5Y-5.05
X3.6Y-5.05
X3.7Y-5.05
X3.8Y-5.05
X3.9Y-4.7
X3.9Y-4.8
X4.0Y-3.0
X4.0Y-3.7
X4.0Y-4.7
X4.0Y-4.8
X4.05Y-1.65
X4.05Y-1.95
X4.075Y-1.55
X4.075Y-2.05
X4.1Y-3.0
X4.1Y-3.7
X4.1Y-4.7
X4.1Y-4.8
X4.15Y-1.6
X4.15Y-2.0
X4.2Y-3.0
X4.2Y-3.7
X4.2Y-4.7
X4.2Y-4.8
X4.25Y-2.125
X4.25Y-3.4756
X4.25Y-4.0756
X4.3Y-3.0
X4.3Y-3.7
X4.3Y-4.7
X4.3Y-4.8
X4.35Y-1.8
X4.35Y-2.125
X4.35Y-3.4756
X4.35Y-4.0756
X4.4Y-3.0
X4.4Y-3.7
X4.4Y-4.7
X4.4Y-4.8
X4.45Y-1.8
X4.45Y-2.125
X4.45Y-3.4756
X4.45Y-4.0756
X4.5Y-3.0
X4.5Y-3.7
X4.5Y-4.7
X4.5Y-4.8
X4.55Y-1.8
X4.55Y-2.125
X4.55Y-3.4756
X4.55Y-4.0756
X4.6Y-3.0
X4.6Y-3.7
X4.6Y-4.7
X4.6Y-4.8
X4.65Y-4.0756
X4.7Y-3.0
X4.7Y-3.7
X4.7Y-4.7
X4.7Y-4.8
X4.75Y-1.6
X4.75Y-1.8
X4.75Y-1.9
X4.75Y-2.0
X4.8Y-3.0
X4.8Y-3.2
X4.8Y-3.7
X4.8Y-4.1
X4.8Y-4.7
X4.8Y-4.8
X4.825Y-1.55
X4.825Y-2.05
X4.85Y-1.65
X4.85Y-1.95
X4.9Y-3.0
X4.9Y-3.2
X4.9Y-3.7
X4.9Y-4.1
X4.9Y-4.7
X4.9Y-4.8
X5.0Y-3.0
X5.0Y-3.2
X5.0Y-3.7
X5.0Y-4.1
X5.0Y-4.7
X5.0Y-4.8
X5.1Y-3.0
X5.1Y-3.2
X5.1Y-3.7
X5.1Y-4.1
X5.1Y-4.7
X5.1Y-4.8
X5.2Y-3.0
X5.2Y-3.2
X5.2Y-3.7
X5.2Y-4.1
X5.2Y-4.7
X5.2Y-4.8
X5.3Y-3.0
X5.3Y-3.2
X5.3Y-3.7
X5.3Y-4.1
X5.3Y-4.7
X5.3Y-4.8
X5.4Y-3.0
X5.4Y-3.2
X5.4Y-3.7
X5.4Y-4.1
X5.4Y-4.7
X5.4Y-4.8
X5.5Y-3.0
X5.5Y-3.2
X5.5Y-3.7
X5.5Y-4.1
X5.5Y-4.7
X5.5Y-4.8
X5.6Y-3.0
X5.6Y-3.2
X5.6Y-3.7
X5.6Y-4.1
X5.6Y-4.7
X5.6Y-4.8
X5.7Y-3.0
X5.7Y-3.2
X5.7Y-3.7
X5.7Y-4.1
X5.7Y-4.5
X5.7Y-4.6
X5.7Y-4.7
X5.7Y-4.8
X5.8Y-3.0
X5.8Y-3.2
X5.8Y-3.7
X5.8Y-4.1
X5.8Y-4.5
X5.8Y-4.6
X5.8Y-4.7
X5.8Y-4.8
X5.9Y-3.0
X5.9Y-3.2
X5.9Y-3.7
X5.9Y-4.1
X6.0Y-3.2
X6.0Y-4.1
X6.0Y-5.05
X6.1Y-3.2
X6.1Y-4.1
X6.1Y-5.05
X6.2Y-3.2
X6.2Y-4.1
X6.2Y-5.05
X6.3Y-3.2
X6.3Y-4.1
X6.4Y-3.2
X6.4Y-4.1
X6.5Y-3.2
X6.5Y-4.1
X6.6Y-3.2
X6.6Y-4.1
X6.825Y-2.6
X6.825Y-2.7
T7
X3.95Y-5.05
X4.05Y-5.05
X4.15Y-5.05
X4.3006Y-5.05
X4.305Y-3.565
X4.305Y-4.465
X4.4006Y-5.05
X4.405Y-3.565
X4.405Y-4.465
X4.5006Y-5.05
X4.505Y-3.565
X4.505Y-4.465
X4.605Y-3.565
X4.605Y-4.465
X4.705Y-3.565
X4.705Y-4.465
X4.805Y-3.565
X4.805Y-4.465
X4.905Y-3.565
X4.905Y-4.465
X5.005Y-3.565
X5.005Y-4.465
X5.15Y-5.0
X5.15Y-5.1
X5.25Y-5.0
X5.25Y-5.1
X5.35Y-5.0
X5.35Y-5.1
X5.45Y-5.0
X5.45Y-5.1
X5.55Y-5.0
X5.55Y-5.1
X5.65Y-5.0
X5.65Y-5.1
X5.75Y-5.0
X5.75Y-5.1
X5.85Y-5.0
X5.85Y-5.1
T8
X3.425Y-1.5
X3.65Y-1.95
X3.65Y-2.35
X3.775Y-1.95
X3.775Y-2.35
X3.9Y-1.95
X3.9Y-2.35
X6.35Y-4.5478
X6.35Y-4.725
X6.35Y-4.9228
X6.35Y-5.1
X6.6059Y-4.5478
X6.6059Y-4.725
X6.6059Y-4.9228
X6.6059Y-5.1
T9
X3.425Y-1.7
X3.425Y-1.8
X5.0Y-1.5
X5.0Y-1.6
X6.825Y-1.5
X6.825Y-1.6
X6.825Y-1.7
X6.825Y-1.8
X6.825Y-1.9
X6.825Y-2.1
X6.825Y-2.2
X6.825Y-2.3
X6.825Y-2.4
X6.825Y-3.475
X6.825Y-3.575
X6.825Y-3.675
X6.825Y-3.775
X6.825Y-3.875
X6.825Y-4.075
X6.825Y-4.175
X6.825Y-4.275
X6.825Y-4.375
X6.825Y-4.475
X6.825Y-4.575
X6.825Y-4.675
X6.825Y-4.775
X6.825Y-4.975
X6.825Y-5.075
T10
X3.3177Y-1.8209
X3.3177Y-2.0177
X3.3177Y-2.2146
X3.3177Y-2.4114
X3.3177Y-2.6083
X3.3177Y-2.8051
X3.3177Y-3.002
X3.3177Y-3.1988
X3.3177Y-3.3957
X3.3177Y-3.5925
X3.3177Y-3.7894
X3.3177Y-3.9862
X3.3177Y-4.1831
X3.3177Y-4.3799
X3.3177Y-4.5768
X3.3177Y-4.7736
X3.4161Y-1.9193
X3.4161Y-2.1161
X3.4161Y-2.313
X3.4161Y-2.5098
X3.4161Y-2.7067
X3.4161Y-2.9035
X3.4161Y-3.1004
X3.4161Y-3.2972
X3.4161Y-3.4941
X3.4161Y-3.6909
X3.4161Y-3.8878
X3.4161Y-4.0846
X3.4161Y-4.2815
X3.4161Y-4.4783
X3.4161Y-4.6752
T11
X4.55Y-3.7756
T12
X3.7083Y-2.8366
X4.8124Y-3.4
X5.9917Y-2.8376
T13
X3.7083Y-3.8567
X3.7083Y-4.7622
X5.9917Y-3.8567
X5.9917Y-4.7622
T14
X3.2193Y-1.624
X3.2193Y-4.9705
T15
X6.825Y-3.295
T16
X4.45Y-1.575
T0
M30
