M48
; DRILL file {KiCad (6.0.9)} date Thu Feb  9 17:54:30 2023
; FORMAT={-:-/ absolute / inch / decimal}
; #@! TF.CreationDate,2023-02-09T17:54:30+01:00
; #@! TF.GenerationSoftware,Kicad,Pcbnew,(6.0.9)
; #@! TF.FileFunction,Plated,1,2,PTH
FMAT,2
INCH
; #@! TA.AperFunction,Plated,PTH,ViaDrill
T1C0.0157
; #@! TA.AperFunction,Plated,PTH,ComponentDrill
T2C0.0236
; #@! TA.AperFunction,Plated,PTH,ComponentDrill
T3C0.0295
; #@! TA.AperFunction,Plated,PTH,ComponentDrill
T4C0.0315
; #@! TA.AperFunction,Plated,PTH,ComponentDrill
T5C0.0394
%
G90
G05
T1
X3.292Y-2.792
X3.322Y-3.152
X3.322Y-3.807
X3.337Y-2.747
X3.337Y-2.997
X3.382Y-3.507
X3.387Y-2.792
X3.387Y-2.882
X3.467Y-3.3921
X3.4775Y-3.592
X3.487Y-2.982
X3.487Y-3.042
X3.5125Y-3.012
X3.5365Y-3.592
X3.537Y-3.902
X3.547Y-3.197
X3.547Y-3.277
X3.5545Y-3.4095
X3.587Y-2.982
X3.602Y-3.042
X3.627Y-3.197
X3.662Y-3.592
X3.672Y-3.442
X3.682Y-3.827
X3.772Y-2.747
X3.787Y-2.792
X3.807Y-3.347
X3.807Y-3.457
X3.807Y-3.592
X3.8512Y-3.8311
X3.862Y-3.0839
X3.862Y-3.182
X3.872Y-3.732
X3.887Y-2.792
X3.887Y-3.347
X3.887Y-3.457
X3.9541Y-3.832
X3.967Y-3.347
X3.967Y-3.457
X3.992Y-2.982
X3.992Y-3.047
X3.992Y-3.117
X3.997Y-3.597
X4.007Y-3.732
X4.0721Y-3.7524
X4.077Y-3.597
X4.1001Y-3.7801
X4.107Y-2.747
X4.137Y-3.197
X4.137Y-3.832
X4.182Y-2.987
X4.237Y-3.902
X4.322Y-3.172
X4.327Y-2.997
X4.327Y-3.367
X4.3325Y-3.297
X4.337Y-3.412
X4.392Y-3.057
X4.392Y-3.297
X4.392Y-3.392
X4.392Y-3.797
X4.412Y-3.172
X4.437Y-3.037
X4.442Y-2.747
X4.477Y-2.997
X4.487Y-3.607
X4.5309Y-3.797
X4.582Y-2.792
X4.582Y-3.382
X4.582Y-3.932
T2
X3.362Y-3.087
X3.4407Y-3.087
X3.562Y-3.087
X3.562Y-3.687
X3.6407Y-3.087
X3.6407Y-3.687
X3.762Y-3.687
X3.8407Y-3.687
X3.962Y-3.687
X4.0407Y-3.687
X4.162Y-3.687
X4.2407Y-3.687
T3
X4.437Y-3.7297
X4.4874Y-3.6797
X4.537Y-3.7297
T4
X3.337Y-3.337
X3.337Y-3.637
X3.3378Y-3.237
X3.3386Y-3.737
X3.4362Y-3.237
X3.437Y-3.337
X3.437Y-3.637
X3.437Y-3.737
X3.587Y-3.237
X3.587Y-3.537
X3.687Y-3.237
X3.687Y-3.537
X3.737Y-3.037
X3.737Y-3.137
X3.787Y-3.237
X3.787Y-3.537
X3.887Y-3.237
X3.887Y-3.537
X3.987Y-3.237
X3.987Y-3.537
X4.087Y-3.237
X4.087Y-3.537
X4.137Y-3.037
X4.137Y-3.137
X4.187Y-3.237
X4.187Y-3.537
X4.237Y-3.037
X4.237Y-3.137
X4.287Y-3.237
X4.287Y-3.537
X4.337Y-3.6386
X4.337Y-3.737
X4.437Y-3.237
X4.437Y-3.637
X4.537Y-3.037
X4.537Y-3.137
X4.537Y-3.237
X4.537Y-3.637
T5
X3.337Y-2.687
X3.337Y-2.837
X3.337Y-2.937
X3.337Y-3.887
X3.437Y-2.687
X3.437Y-2.837
X3.437Y-2.937
X3.437Y-3.887
X3.537Y-2.687
X3.537Y-2.837
X3.537Y-2.937
X3.637Y-2.687
X3.637Y-2.837
X3.637Y-2.937
X3.637Y-3.887
X3.737Y-2.837
X3.737Y-2.937
X3.737Y-3.887
X3.772Y-2.687
X3.837Y-2.837
X3.837Y-2.937
X3.837Y-3.887
X3.872Y-2.687
X3.937Y-2.837
X3.937Y-2.937
X3.937Y-3.887
X3.972Y-2.687
X4.037Y-2.837
X4.037Y-2.937
X4.037Y-3.887
X4.107Y-2.687
X4.137Y-2.837
X4.137Y-2.937
X4.137Y-3.887
X4.207Y-2.687
X4.237Y-2.837
X4.237Y-2.937
X4.307Y-2.687
X4.337Y-2.837
X4.337Y-2.937
X4.337Y-3.887
X4.437Y-2.837
X4.437Y-2.937
X4.437Y-3.887
X4.4418Y-2.687
X4.537Y-2.837
X4.537Y-2.937
X4.537Y-3.887
X4.5418Y-2.687
T0
M30
