%TF.GenerationSoftware,KiCad,Pcbnew,(6.0.9)*%
%TF.CreationDate,2023-02-09T17:54:21+01:00*%
%TF.ProjectId,piTelex_V10_1.0.0,70695465-6c65-4785-9f56-31305f312e30,1.0.0 -JK-*%
%TF.SameCoordinates,Original*%
%TF.FileFunction,Soldermask,Top*%
%TF.FilePolarity,Negative*%
%FSLAX46Y46*%
G04 Gerber Fmt 4.6, Leading zero omitted, Abs format (unit mm)*
G04 Created by KiCad (PCBNEW (6.0.9)) date 2023-02-09 17:54:21*
%MOMM*%
%LPD*%
G01*
G04 APERTURE LIST*
G04 Aperture macros list*
%AMRoundRect*
0 Rectangle with rounded corners*
0 $1 Rounding radius*
0 $2 $3 $4 $5 $6 $7 $8 $9 X,Y pos of 4 corners*
0 Add a 4 corners polygon primitive as box body*
4,1,4,$2,$3,$4,$5,$6,$7,$8,$9,$2,$3,0*
0 Add four circle primitives for the rounded corners*
1,1,$1+$1,$2,$3*
1,1,$1+$1,$4,$5*
1,1,$1+$1,$6,$7*
1,1,$1+$1,$8,$9*
0 Add four rect primitives between the rounded corners*
20,1,$1+$1,$2,$3,$4,$5,0*
20,1,$1+$1,$4,$5,$6,$7,0*
20,1,$1+$1,$6,$7,$8,$9,0*
20,1,$1+$1,$8,$9,$2,$3,0*%
G04 Aperture macros list end*
%ADD10C,1.600000*%
%ADD11O,1.600000X1.600000*%
%ADD12R,1.600000X1.600000*%
%ADD13R,1.700000X1.700000*%
%ADD14O,1.700000X1.700000*%
%ADD15C,1.200000*%
%ADD16RoundRect,0.300000X-0.300000X-0.300000X0.300000X-0.300000X0.300000X0.300000X-0.300000X0.300000X0*%
%ADD17RoundRect,0.425000X0.425000X-0.425000X0.425000X0.425000X-0.425000X0.425000X-0.425000X-0.425000X0*%
%ADD18R,1.300000X1.300000*%
%ADD19C,1.300000*%
%ADD20RoundRect,0.425000X-0.425000X0.425000X-0.425000X-0.425000X0.425000X-0.425000X0.425000X0.425000X0*%
G04 APERTURE END LIST*
D10*
%TO.C,R2*%
X94920000Y-79680000D03*
D11*
X105080000Y-79680000D03*
%TD*%
D10*
%TO.C,C8*%
X87300000Y-94920000D03*
X84800000Y-94920000D03*
%TD*%
D12*
%TO.C,D4*%
X107620000Y-79680000D03*
D11*
X115240000Y-79680000D03*
%TD*%
D10*
%TO.C,C7*%
X87280000Y-82220000D03*
X84780000Y-82220000D03*
%TD*%
%TO.C,R1*%
X94920000Y-77140000D03*
D11*
X105080000Y-77140000D03*
%TD*%
D13*
%TO.C,J2*%
X95809000Y-68250000D03*
D14*
X98349000Y-68250000D03*
X100889000Y-68250000D03*
%TD*%
D15*
%TO.C,C6*%
X105715000Y-93650000D03*
D16*
X107715000Y-93650000D03*
%TD*%
D10*
%TO.C,R4*%
X115240000Y-82220000D03*
D11*
X115240000Y-92380000D03*
%TD*%
D15*
%TO.C,C4*%
X95555000Y-93650000D03*
D16*
X97555000Y-93650000D03*
%TD*%
D17*
%TO.C,J3*%
X104318000Y-68250000D03*
D13*
X106858000Y-68250000D03*
D14*
X109398000Y-68250000D03*
%TD*%
D18*
%TO.C,Q1*%
X112700000Y-94735000D03*
D19*
X113980000Y-93465000D03*
X115240000Y-94735000D03*
%TD*%
D13*
%TO.C,J7*%
X115240000Y-98730000D03*
D14*
X112700000Y-98730000D03*
X110160000Y-98730000D03*
%TD*%
D13*
%TO.C,J1*%
X84760000Y-68250000D03*
D14*
X87300000Y-68250000D03*
X89840000Y-68250000D03*
X92380000Y-68250000D03*
%TD*%
D13*
%TO.C,J5*%
X87300000Y-98730000D03*
D14*
X84760000Y-98730000D03*
%TD*%
D15*
%TO.C,C1*%
X85395000Y-78410000D03*
D16*
X87395000Y-78410000D03*
%TD*%
D12*
%TO.C,D2*%
X87300000Y-84760000D03*
D11*
X87300000Y-92380000D03*
%TD*%
D15*
%TO.C,C5*%
X100635000Y-93650000D03*
D16*
X102635000Y-93650000D03*
%TD*%
D15*
%TO.C,C3*%
X90475000Y-93650000D03*
D16*
X92475000Y-93650000D03*
%TD*%
D13*
%TO.C,J4*%
X112822000Y-68250000D03*
D14*
X115362000Y-68250000D03*
%TD*%
D10*
%TO.C,C9*%
X110160000Y-94920000D03*
X110160000Y-92420000D03*
%TD*%
D13*
%TO.C,J6*%
X105080000Y-98730000D03*
D14*
X102540000Y-98730000D03*
X100000000Y-98730000D03*
X97460000Y-98730000D03*
X94920000Y-98730000D03*
X92380000Y-98730000D03*
%TD*%
D12*
%TO.C,D3*%
X107620000Y-77140000D03*
D11*
X115240000Y-77140000D03*
%TD*%
D10*
%TO.C,R3*%
X112700000Y-92380000D03*
D11*
X112700000Y-82220000D03*
%TD*%
D15*
%TO.C,C2*%
X90475000Y-78410000D03*
D16*
X92475000Y-78410000D03*
%TD*%
D12*
%TO.C,D1*%
X84760000Y-92380000D03*
D11*
X84760000Y-84760000D03*
%TD*%
D12*
%TO.C,U1*%
X91110000Y-89840000D03*
D11*
X93650000Y-89840000D03*
X96190000Y-89840000D03*
X98730000Y-89840000D03*
X101270000Y-89840000D03*
X103810000Y-89840000D03*
X106350000Y-89840000D03*
X108890000Y-89840000D03*
X108890000Y-82220000D03*
X106350000Y-82220000D03*
X103810000Y-82220000D03*
X101270000Y-82220000D03*
X98730000Y-82220000D03*
X96190000Y-82220000D03*
X93650000Y-82220000D03*
X91110000Y-82220000D03*
%TD*%
D13*
%TO.C,J8*%
X84760000Y-74600000D03*
D14*
X84760000Y-72060000D03*
X87300000Y-74600000D03*
X87300000Y-72060000D03*
X89840000Y-74600000D03*
D20*
X89840000Y-72060000D03*
D14*
X92380000Y-74600000D03*
X92380000Y-72060000D03*
D20*
X94920000Y-74600000D03*
D14*
X94920000Y-72060000D03*
X97460000Y-74600000D03*
X97460000Y-72060000D03*
X100000000Y-74600000D03*
D20*
X100000000Y-72060000D03*
D14*
X102540000Y-74600000D03*
X102540000Y-72060000D03*
X105080000Y-74600000D03*
X105080000Y-72060000D03*
X107620000Y-74600000D03*
D20*
X107620000Y-72060000D03*
D14*
X110160000Y-74600000D03*
X110160000Y-72060000D03*
X112700000Y-74600000D03*
X112700000Y-72060000D03*
D20*
X115240000Y-74600000D03*
D14*
X115240000Y-72060000D03*
%TD*%
M02*
