%TF.GenerationSoftware,KiCad,Pcbnew,(6.0.9)*%
%TF.CreationDate,2023-02-09T17:54:21+01:00*%
%TF.ProjectId,piTelex_V10_1.0.0,70695465-6c65-4785-9f56-31305f312e30,1.0.0 -JK-*%
%TF.SameCoordinates,Original*%
%TF.FileFunction,Legend,Bot*%
%TF.FilePolarity,Positive*%
%FSLAX46Y46*%
G04 Gerber Fmt 4.6, Leading zero omitted, Abs format (unit mm)*
G04 Created by KiCad (PCBNEW (6.0.9)) date 2023-02-09 17:54:21*
%MOMM*%
%LPD*%
G01*
G04 APERTURE LIST*
%ADD10C,0.150000*%
%ADD11C,0.200000*%
%ADD12C,0.120000*%
%ADD13C,0.010000*%
G04 APERTURE END LIST*
D10*
X111816029Y-78463443D02*
G75*
G03*
X112070029Y-78590443I248971J180443D01*
G01*
X112705029Y-80114443D02*
X112705029Y-78590443D01*
X112578029Y-80114443D02*
X112832029Y-80114443D01*
X113213029Y-78590443D02*
X113213029Y-79606443D01*
X112070029Y-80114443D02*
X112324029Y-80114443D01*
X113213029Y-79606443D02*
G75*
G03*
X113721029Y-80114443I508001J1D01*
G01*
X113721029Y-78717443D02*
G75*
G03*
X113340029Y-78590443I-371099J-478298D01*
G01*
X112070029Y-78590443D02*
X113340029Y-78590443D01*
X112197029Y-80114443D02*
X112197029Y-78590443D01*
X82855000Y-70155000D02*
X117145000Y-70155000D01*
X108418952Y-83910714D02*
X108418952Y-84720238D01*
X108457047Y-84815476D01*
X108495142Y-84863095D01*
X108571333Y-84910714D01*
X108685619Y-84910714D01*
X108761809Y-84863095D01*
X108418952Y-84529761D02*
X108495142Y-84577380D01*
X108647523Y-84577380D01*
X108723714Y-84529761D01*
X108761809Y-84482142D01*
X108799904Y-84386904D01*
X108799904Y-84101190D01*
X108761809Y-84005952D01*
X108723714Y-83958333D01*
X108647523Y-83910714D01*
X108495142Y-83910714D01*
X108418952Y-83958333D01*
X108038000Y-84577380D02*
X108038000Y-83910714D01*
X108038000Y-83577380D02*
X108076095Y-83625000D01*
X108038000Y-83672619D01*
X107999904Y-83625000D01*
X108038000Y-83577380D01*
X108038000Y-83672619D01*
X107771333Y-83910714D02*
X107466571Y-83910714D01*
X107657047Y-83577380D02*
X107657047Y-84434523D01*
X107618952Y-84529761D01*
X107542761Y-84577380D01*
X107466571Y-84577380D01*
X107199904Y-84577380D02*
X107199904Y-83577380D01*
X106857047Y-84577380D02*
X106857047Y-84053571D01*
X106895142Y-83958333D01*
X106971333Y-83910714D01*
X107085619Y-83910714D01*
X107161809Y-83958333D01*
X107199904Y-84005952D01*
X106133238Y-83910714D02*
X106133238Y-84577380D01*
X106476095Y-83910714D02*
X106476095Y-84434523D01*
X106438000Y-84529761D01*
X106361809Y-84577380D01*
X106247523Y-84577380D01*
X106171333Y-84529761D01*
X106133238Y-84482142D01*
X105752285Y-84577380D02*
X105752285Y-83577380D01*
X105752285Y-83958333D02*
X105676095Y-83910714D01*
X105523714Y-83910714D01*
X105447523Y-83958333D01*
X105409428Y-84005952D01*
X105371333Y-84101190D01*
X105371333Y-84386904D01*
X105409428Y-84482142D01*
X105447523Y-84529761D01*
X105523714Y-84577380D01*
X105676095Y-84577380D01*
X105752285Y-84529761D01*
X105028476Y-84482142D02*
X104990380Y-84529761D01*
X105028476Y-84577380D01*
X105066571Y-84529761D01*
X105028476Y-84482142D01*
X105028476Y-84577380D01*
X104304666Y-84529761D02*
X104380857Y-84577380D01*
X104533238Y-84577380D01*
X104609428Y-84529761D01*
X104647523Y-84482142D01*
X104685619Y-84386904D01*
X104685619Y-84101190D01*
X104647523Y-84005952D01*
X104609428Y-83958333D01*
X104533238Y-83910714D01*
X104380857Y-83910714D01*
X104304666Y-83958333D01*
X103847523Y-84577380D02*
X103923714Y-84529761D01*
X103961809Y-84482142D01*
X103999904Y-84386904D01*
X103999904Y-84101190D01*
X103961809Y-84005952D01*
X103923714Y-83958333D01*
X103847523Y-83910714D01*
X103733238Y-83910714D01*
X103657047Y-83958333D01*
X103618952Y-84005952D01*
X103580857Y-84101190D01*
X103580857Y-84386904D01*
X103618952Y-84482142D01*
X103657047Y-84529761D01*
X103733238Y-84577380D01*
X103847523Y-84577380D01*
X103238000Y-84577380D02*
X103238000Y-83910714D01*
X103238000Y-84005952D02*
X103199904Y-83958333D01*
X103123714Y-83910714D01*
X103009428Y-83910714D01*
X102933238Y-83958333D01*
X102895142Y-84053571D01*
X102895142Y-84577380D01*
X102895142Y-84053571D02*
X102857047Y-83958333D01*
X102780857Y-83910714D01*
X102666571Y-83910714D01*
X102590380Y-83958333D01*
X102552285Y-84053571D01*
X102552285Y-84577380D01*
X101599904Y-83529761D02*
X102285619Y-84815476D01*
X101447523Y-83910714D02*
X101142761Y-83910714D01*
X101333238Y-84577380D02*
X101333238Y-83720238D01*
X101295142Y-83625000D01*
X101218952Y-83577380D01*
X101142761Y-83577380D01*
X100533238Y-84577380D02*
X100533238Y-84053571D01*
X100571333Y-83958333D01*
X100647523Y-83910714D01*
X100799904Y-83910714D01*
X100876095Y-83958333D01*
X100533238Y-84529761D02*
X100609428Y-84577380D01*
X100799904Y-84577380D01*
X100876095Y-84529761D01*
X100914190Y-84434523D01*
X100914190Y-84339285D01*
X100876095Y-84244047D01*
X100799904Y-84196428D01*
X100609428Y-84196428D01*
X100533238Y-84148809D01*
X100152285Y-84577380D02*
X100152285Y-83577380D01*
X100152285Y-83958333D02*
X100076095Y-83910714D01*
X99923714Y-83910714D01*
X99847523Y-83958333D01*
X99809428Y-84005952D01*
X99771333Y-84101190D01*
X99771333Y-84386904D01*
X99809428Y-84482142D01*
X99847523Y-84529761D01*
X99923714Y-84577380D01*
X100076095Y-84577380D01*
X100152285Y-84529761D01*
X99314190Y-84577380D02*
X99390380Y-84529761D01*
X99428476Y-84434523D01*
X99428476Y-83577380D01*
X98666571Y-84577380D02*
X98666571Y-84053571D01*
X98704666Y-83958333D01*
X98780857Y-83910714D01*
X98933238Y-83910714D01*
X99009428Y-83958333D01*
X98666571Y-84529761D02*
X98742761Y-84577380D01*
X98933238Y-84577380D01*
X99009428Y-84529761D01*
X99047523Y-84434523D01*
X99047523Y-84339285D01*
X99009428Y-84244047D01*
X98933238Y-84196428D01*
X98742761Y-84196428D01*
X98666571Y-84148809D01*
X98285619Y-84577380D02*
X98285619Y-83577380D01*
X98285619Y-83958333D02*
X98209428Y-83910714D01*
X98057047Y-83910714D01*
X97980857Y-83958333D01*
X97942761Y-84005952D01*
X97904666Y-84101190D01*
X97904666Y-84386904D01*
X97942761Y-84482142D01*
X97980857Y-84529761D01*
X98057047Y-84577380D01*
X98209428Y-84577380D01*
X98285619Y-84529761D01*
X97561809Y-84196428D02*
X96952285Y-84196428D01*
X96647523Y-83910714D02*
X96495142Y-84577380D01*
X96342761Y-84101190D01*
X96190380Y-84577380D01*
X96038000Y-83910714D01*
X95390380Y-83910714D02*
X95390380Y-84577380D01*
X95733238Y-83910714D02*
X95733238Y-84434523D01*
X95695142Y-84529761D01*
X95618952Y-84577380D01*
X95504666Y-84577380D01*
X95428476Y-84529761D01*
X95390380Y-84482142D01*
X94704666Y-84529761D02*
X94780857Y-84577380D01*
X94933238Y-84577380D01*
X95009428Y-84529761D01*
X95047523Y-84434523D01*
X95047523Y-84053571D01*
X95009428Y-83958333D01*
X94933238Y-83910714D01*
X94780857Y-83910714D01*
X94704666Y-83958333D01*
X94666571Y-84053571D01*
X94666571Y-84148809D01*
X95047523Y-84244047D01*
X93752285Y-83529761D02*
X94438000Y-84815476D01*
X93485619Y-83910714D02*
X93485619Y-84910714D01*
X93485619Y-83958333D02*
X93409428Y-83910714D01*
X93257047Y-83910714D01*
X93180857Y-83958333D01*
X93142761Y-84005952D01*
X93104666Y-84101190D01*
X93104666Y-84386904D01*
X93142761Y-84482142D01*
X93180857Y-84529761D01*
X93257047Y-84577380D01*
X93409428Y-84577380D01*
X93485619Y-84529761D01*
X92761809Y-84577380D02*
X92761809Y-83910714D01*
X92761809Y-83577380D02*
X92799904Y-83625000D01*
X92761809Y-83672619D01*
X92723714Y-83625000D01*
X92761809Y-83577380D01*
X92761809Y-83672619D01*
X92495142Y-83577380D02*
X92038000Y-83577380D01*
X92266571Y-84577380D02*
X92266571Y-83577380D01*
X91466571Y-84529761D02*
X91542761Y-84577380D01*
X91695142Y-84577380D01*
X91771333Y-84529761D01*
X91809428Y-84434523D01*
X91809428Y-84053571D01*
X91771333Y-83958333D01*
X91695142Y-83910714D01*
X91542761Y-83910714D01*
X91466571Y-83958333D01*
X91428476Y-84053571D01*
X91428476Y-84148809D01*
X91809428Y-84244047D01*
X90971333Y-84577380D02*
X91047523Y-84529761D01*
X91085619Y-84434523D01*
X91085619Y-83577380D01*
X90361809Y-84529761D02*
X90438000Y-84577380D01*
X90590380Y-84577380D01*
X90666571Y-84529761D01*
X90704666Y-84434523D01*
X90704666Y-84053571D01*
X90666571Y-83958333D01*
X90590380Y-83910714D01*
X90438000Y-83910714D01*
X90361809Y-83958333D01*
X90323714Y-84053571D01*
X90323714Y-84148809D01*
X90704666Y-84244047D01*
X90057047Y-84577380D02*
X89638000Y-83910714D01*
X90057047Y-83910714D02*
X89638000Y-84577380D01*
X100452380Y-95650333D02*
X99976190Y-95317000D01*
X100452380Y-95078904D02*
X99452380Y-95078904D01*
X99452380Y-95459857D01*
X99500000Y-95555095D01*
X99547619Y-95602714D01*
X99642857Y-95650333D01*
X99785714Y-95650333D01*
X99880952Y-95602714D01*
X99928571Y-95555095D01*
X99976190Y-95459857D01*
X99976190Y-95078904D01*
X99452380Y-95983666D02*
X100452380Y-96650333D01*
X99452380Y-96650333D02*
X100452380Y-95983666D01*
X100452380Y-97031285D02*
X99452380Y-97031285D01*
X99452380Y-97269380D01*
X99500000Y-97412238D01*
X99595238Y-97507476D01*
X99690476Y-97555095D01*
X99880952Y-97602714D01*
X100023809Y-97602714D01*
X100214285Y-97555095D01*
X100309523Y-97507476D01*
X100404761Y-97412238D01*
X100452380Y-97269380D01*
X100452380Y-97031285D01*
X112454000Y-69908904D02*
X112406380Y-69813666D01*
X112406380Y-69670809D01*
X112454000Y-69527952D01*
X112549238Y-69432714D01*
X112644476Y-69385095D01*
X112834952Y-69337476D01*
X112977809Y-69337476D01*
X113168285Y-69385095D01*
X113263523Y-69432714D01*
X113358761Y-69527952D01*
X113406380Y-69670809D01*
X113406380Y-69766047D01*
X113358761Y-69908904D01*
X113311142Y-69956523D01*
X112977809Y-69956523D01*
X112977809Y-69766047D01*
X100833428Y-69266047D02*
X100833428Y-70027952D01*
X101214380Y-69647000D02*
X100452476Y-69647000D01*
X115121000Y-97467904D02*
X115073380Y-97372666D01*
X115073380Y-97229809D01*
X115121000Y-97086952D01*
X115216238Y-96991714D01*
X115311476Y-96944095D01*
X115501952Y-96896476D01*
X115644809Y-96896476D01*
X115835285Y-96944095D01*
X115930523Y-96991714D01*
X116025761Y-97086952D01*
X116073380Y-97229809D01*
X116073380Y-97325047D01*
X116025761Y-97467904D01*
X115978142Y-97515523D01*
X115644809Y-97515523D01*
X115644809Y-97325047D01*
X101992380Y-96634523D02*
X101992380Y-96158333D01*
X102468571Y-96110714D01*
X102420952Y-96158333D01*
X102373333Y-96253571D01*
X102373333Y-96491666D01*
X102420952Y-96586904D01*
X102468571Y-96634523D01*
X102563809Y-96682142D01*
X102801904Y-96682142D01*
X102897142Y-96634523D01*
X102944761Y-96586904D01*
X102992380Y-96491666D01*
X102992380Y-96253571D01*
X102944761Y-96158333D01*
X102897142Y-96110714D01*
X101992380Y-96967857D02*
X102992380Y-97301190D01*
X101992380Y-97634523D01*
X96784904Y-86387142D02*
X96832523Y-86434761D01*
X96975380Y-86482380D01*
X97070619Y-86482380D01*
X97213476Y-86434761D01*
X97308714Y-86339523D01*
X97356333Y-86244285D01*
X97403952Y-86053809D01*
X97403952Y-85910952D01*
X97356333Y-85720476D01*
X97308714Y-85625238D01*
X97213476Y-85530000D01*
X97070619Y-85482380D01*
X96975380Y-85482380D01*
X96832523Y-85530000D01*
X96784904Y-85577619D01*
X95784904Y-86387142D02*
X95832523Y-86434761D01*
X95975380Y-86482380D01*
X96070619Y-86482380D01*
X96213476Y-86434761D01*
X96308714Y-86339523D01*
X96356333Y-86244285D01*
X96403952Y-86053809D01*
X96403952Y-85910952D01*
X96356333Y-85720476D01*
X96308714Y-85625238D01*
X96213476Y-85530000D01*
X96070619Y-85482380D01*
X95975380Y-85482380D01*
X95832523Y-85530000D01*
X95784904Y-85577619D01*
X95356333Y-86101428D02*
X94594428Y-86101428D01*
X94165857Y-86434761D02*
X94023000Y-86482380D01*
X93784904Y-86482380D01*
X93689666Y-86434761D01*
X93642047Y-86387142D01*
X93594428Y-86291904D01*
X93594428Y-86196666D01*
X93642047Y-86101428D01*
X93689666Y-86053809D01*
X93784904Y-86006190D01*
X93975380Y-85958571D01*
X94070619Y-85910952D01*
X94118238Y-85863333D01*
X94165857Y-85768095D01*
X94165857Y-85672857D01*
X94118238Y-85577619D01*
X94070619Y-85530000D01*
X93975380Y-85482380D01*
X93737285Y-85482380D01*
X93594428Y-85530000D01*
X93213476Y-86196666D02*
X92737285Y-86196666D01*
X93308714Y-86482380D02*
X92975380Y-85482380D01*
X92642047Y-86482380D01*
X92308714Y-86101428D02*
X91546809Y-86101428D01*
X90737285Y-85958571D02*
X90594428Y-86006190D01*
X90546809Y-86053809D01*
X90499190Y-86149047D01*
X90499190Y-86291904D01*
X90546809Y-86387142D01*
X90594428Y-86434761D01*
X90689666Y-86482380D01*
X91070619Y-86482380D01*
X91070619Y-85482380D01*
X90737285Y-85482380D01*
X90642047Y-85530000D01*
X90594428Y-85577619D01*
X90546809Y-85672857D01*
X90546809Y-85768095D01*
X90594428Y-85863333D01*
X90642047Y-85910952D01*
X90737285Y-85958571D01*
X91070619Y-85958571D01*
X89880142Y-86006190D02*
X89880142Y-86482380D01*
X90213476Y-85482380D02*
X89880142Y-86006190D01*
X89546809Y-85482380D01*
X104580000Y-95555095D02*
X104532380Y-95459857D01*
X104532380Y-95317000D01*
X104580000Y-95174142D01*
X104675238Y-95078904D01*
X104770476Y-95031285D01*
X104960952Y-94983666D01*
X105103809Y-94983666D01*
X105294285Y-95031285D01*
X105389523Y-95078904D01*
X105484761Y-95174142D01*
X105532380Y-95317000D01*
X105532380Y-95412238D01*
X105484761Y-95555095D01*
X105437142Y-95602714D01*
X105103809Y-95602714D01*
X105103809Y-95412238D01*
X105532380Y-96031285D02*
X104532380Y-96031285D01*
X105532380Y-96602714D01*
X104532380Y-96602714D01*
X105532380Y-97078904D02*
X104532380Y-97078904D01*
X104532380Y-97317000D01*
X104580000Y-97459857D01*
X104675238Y-97555095D01*
X104770476Y-97602714D01*
X104960952Y-97650333D01*
X105103809Y-97650333D01*
X105294285Y-97602714D01*
X105389523Y-97555095D01*
X105484761Y-97459857D01*
X105532380Y-97317000D01*
X105532380Y-97078904D01*
X86800000Y-97467904D02*
X86752380Y-97372666D01*
X86752380Y-97229809D01*
X86800000Y-97086952D01*
X86895238Y-96991714D01*
X86990476Y-96944095D01*
X87180952Y-96896476D01*
X87323809Y-96896476D01*
X87514285Y-96944095D01*
X87609523Y-96991714D01*
X87704761Y-97086952D01*
X87752380Y-97229809D01*
X87752380Y-97325047D01*
X87704761Y-97467904D01*
X87657142Y-97515523D01*
X87323809Y-97515523D01*
X87323809Y-97325047D01*
X108929095Y-85482380D02*
X108595761Y-86482380D01*
X108262428Y-85482380D01*
X107405285Y-86482380D02*
X107976714Y-86482380D01*
X107691000Y-86482380D02*
X107691000Y-85482380D01*
X107786238Y-85625238D01*
X107881476Y-85720476D01*
X107976714Y-85768095D01*
X106976714Y-86387142D02*
X106929095Y-86434761D01*
X106976714Y-86482380D01*
X107024333Y-86434761D01*
X106976714Y-86387142D01*
X106976714Y-86482380D01*
X106310047Y-85482380D02*
X106214809Y-85482380D01*
X106119571Y-85530000D01*
X106071952Y-85577619D01*
X106024333Y-85672857D01*
X105976714Y-85863333D01*
X105976714Y-86101428D01*
X106024333Y-86291904D01*
X106071952Y-86387142D01*
X106119571Y-86434761D01*
X106214809Y-86482380D01*
X106310047Y-86482380D01*
X106405285Y-86434761D01*
X106452904Y-86387142D01*
X106500523Y-86291904D01*
X106548142Y-86101428D01*
X106548142Y-85863333D01*
X106500523Y-85672857D01*
X106452904Y-85577619D01*
X106405285Y-85530000D01*
X106310047Y-85482380D01*
X105548142Y-86387142D02*
X105500523Y-86434761D01*
X105548142Y-86482380D01*
X105595761Y-86434761D01*
X105548142Y-86387142D01*
X105548142Y-86482380D01*
X104881476Y-85482380D02*
X104786238Y-85482380D01*
X104691000Y-85530000D01*
X104643380Y-85577619D01*
X104595761Y-85672857D01*
X104548142Y-85863333D01*
X104548142Y-86101428D01*
X104595761Y-86291904D01*
X104643380Y-86387142D01*
X104691000Y-86434761D01*
X104786238Y-86482380D01*
X104881476Y-86482380D01*
X104976714Y-86434761D01*
X105024333Y-86387142D01*
X105071952Y-86291904D01*
X105119571Y-86101428D01*
X105119571Y-85863333D01*
X105071952Y-85672857D01*
X105024333Y-85577619D01*
X104976714Y-85530000D01*
X104881476Y-85482380D01*
X103357666Y-86101428D02*
X102595761Y-86101428D01*
X101833857Y-85482380D02*
X101833857Y-86196666D01*
X101881476Y-86339523D01*
X101976714Y-86434761D01*
X102119571Y-86482380D01*
X102214809Y-86482380D01*
X101357666Y-86482380D02*
X101357666Y-85482380D01*
X100786238Y-86482380D02*
X101214809Y-85910952D01*
X100786238Y-85482380D02*
X101357666Y-86053809D01*
X100357666Y-86101428D02*
X99595761Y-86101428D01*
X106358000Y-69908904D02*
X106310380Y-69813666D01*
X106310380Y-69670809D01*
X106358000Y-69527952D01*
X106453238Y-69432714D01*
X106548476Y-69385095D01*
X106738952Y-69337476D01*
X106881809Y-69337476D01*
X107072285Y-69385095D01*
X107167523Y-69432714D01*
X107262761Y-69527952D01*
X107310380Y-69670809D01*
X107310380Y-69766047D01*
X107262761Y-69908904D01*
X107215142Y-69956523D01*
X106881809Y-69956523D01*
X106881809Y-69766047D01*
X95277142Y-95896380D02*
X95324761Y-95848761D01*
X95372380Y-95705904D01*
X95372380Y-95610666D01*
X95324761Y-95467809D01*
X95229523Y-95372571D01*
X95134285Y-95324952D01*
X94943809Y-95277333D01*
X94800952Y-95277333D01*
X94610476Y-95324952D01*
X94515238Y-95372571D01*
X94420000Y-95467809D01*
X94372380Y-95610666D01*
X94372380Y-95705904D01*
X94420000Y-95848761D01*
X94467619Y-95896380D01*
X94372380Y-96182095D02*
X94372380Y-96753523D01*
X95372380Y-96467809D02*
X94372380Y-96467809D01*
X95324761Y-97039238D02*
X95372380Y-97182095D01*
X95372380Y-97420190D01*
X95324761Y-97515428D01*
X95277142Y-97563047D01*
X95181904Y-97610666D01*
X95086666Y-97610666D01*
X94991428Y-97563047D01*
X94943809Y-97515428D01*
X94896190Y-97420190D01*
X94848571Y-97229714D01*
X94800952Y-97134476D01*
X94753333Y-97086857D01*
X94658095Y-97039238D01*
X94562857Y-97039238D01*
X94467619Y-97086857D01*
X94420000Y-97134476D01*
X94372380Y-97229714D01*
X94372380Y-97467809D01*
X94420000Y-97610666D01*
X95436000Y-69908904D02*
X95388380Y-69813666D01*
X95388380Y-69670809D01*
X95436000Y-69527952D01*
X95531238Y-69432714D01*
X95626476Y-69385095D01*
X95816952Y-69337476D01*
X95959809Y-69337476D01*
X96150285Y-69385095D01*
X96245523Y-69432714D01*
X96340761Y-69527952D01*
X96388380Y-69670809D01*
X96388380Y-69766047D01*
X96340761Y-69908904D01*
X96293142Y-69956523D01*
X95959809Y-69956523D01*
X95959809Y-69766047D01*
X111755380Y-97198095D02*
X110755380Y-97198095D01*
X110755380Y-97579047D01*
X110803000Y-97674285D01*
X110850619Y-97721904D01*
X110945857Y-97769523D01*
X111088714Y-97769523D01*
X111183952Y-97721904D01*
X111231571Y-97674285D01*
X111279190Y-97579047D01*
X111279190Y-97198095D01*
X114819380Y-69678761D02*
X114819380Y-69869238D01*
X114867000Y-69964476D01*
X114962238Y-70059714D01*
X115152714Y-70107333D01*
X115486047Y-70107333D01*
X115676523Y-70059714D01*
X115771761Y-69964476D01*
X115819380Y-69869238D01*
X115819380Y-69678761D01*
X115771761Y-69583523D01*
X115676523Y-69488285D01*
X115486047Y-69440666D01*
X115152714Y-69440666D01*
X114962238Y-69488285D01*
X114867000Y-69583523D01*
X114819380Y-69678761D01*
X87244428Y-69266047D02*
X87244428Y-70027952D01*
X87625380Y-69647000D02*
X86863476Y-69647000D01*
X92737142Y-69956523D02*
X92784761Y-69908904D01*
X92832380Y-69766047D01*
X92832380Y-69670809D01*
X92784761Y-69527952D01*
X92689523Y-69432714D01*
X92594285Y-69385095D01*
X92403809Y-69337476D01*
X92260952Y-69337476D01*
X92070476Y-69385095D01*
X91975238Y-69432714D01*
X91880000Y-69527952D01*
X91832380Y-69670809D01*
X91832380Y-69766047D01*
X91880000Y-69908904D01*
X91927619Y-69956523D01*
X116112761Y-89546380D02*
X115922285Y-89546380D01*
X115827047Y-89594000D01*
X115731809Y-89689238D01*
X115684190Y-89879714D01*
X115684190Y-90213047D01*
X115731809Y-90403523D01*
X115827047Y-90498761D01*
X115922285Y-90546380D01*
X116112761Y-90546380D01*
X116208000Y-90498761D01*
X116303238Y-90403523D01*
X116350857Y-90213047D01*
X116350857Y-89879714D01*
X116303238Y-89689238D01*
X116208000Y-89594000D01*
X116112761Y-89546380D01*
X115255619Y-89879714D02*
X115255619Y-90879714D01*
X115255619Y-89927333D02*
X115160380Y-89879714D01*
X114969904Y-89879714D01*
X114874666Y-89927333D01*
X114827047Y-89974952D01*
X114779428Y-90070190D01*
X114779428Y-90355904D01*
X114827047Y-90451142D01*
X114874666Y-90498761D01*
X114969904Y-90546380D01*
X115160380Y-90546380D01*
X115255619Y-90498761D01*
X113969904Y-90498761D02*
X114065142Y-90546380D01*
X114255619Y-90546380D01*
X114350857Y-90498761D01*
X114398476Y-90403523D01*
X114398476Y-90022571D01*
X114350857Y-89927333D01*
X114255619Y-89879714D01*
X114065142Y-89879714D01*
X113969904Y-89927333D01*
X113922285Y-90022571D01*
X113922285Y-90117809D01*
X114398476Y-90213047D01*
X113493714Y-89879714D02*
X113493714Y-90546380D01*
X113493714Y-89974952D02*
X113446095Y-89927333D01*
X113350857Y-89879714D01*
X113208000Y-89879714D01*
X113112761Y-89927333D01*
X113065142Y-90022571D01*
X113065142Y-90546380D01*
X111827047Y-90546380D02*
X111827047Y-89546380D01*
X111827047Y-90022571D02*
X111255619Y-90022571D01*
X111255619Y-90546380D02*
X111255619Y-89546380D01*
X110874666Y-89546380D02*
X110636571Y-90546380D01*
X110446095Y-89832095D01*
X110255619Y-90546380D01*
X110017523Y-89546380D01*
X84688571Y-97404428D02*
X84736190Y-97547285D01*
X84783809Y-97594904D01*
X84879047Y-97642523D01*
X85021904Y-97642523D01*
X85117142Y-97594904D01*
X85164761Y-97547285D01*
X85212380Y-97452047D01*
X85212380Y-97071095D01*
X84212380Y-97071095D01*
X84212380Y-97404428D01*
X84260000Y-97499666D01*
X84307619Y-97547285D01*
X84402857Y-97594904D01*
X84498095Y-97594904D01*
X84593333Y-97547285D01*
X84640952Y-97499666D01*
X84688571Y-97404428D01*
X84688571Y-97071095D01*
X108929714Y-69861285D02*
X109739238Y-69861285D01*
X109834476Y-69813666D01*
X109882095Y-69766047D01*
X109929714Y-69670809D01*
X109929714Y-69527952D01*
X109882095Y-69432714D01*
X109548761Y-69861285D02*
X109596380Y-69766047D01*
X109596380Y-69575571D01*
X109548761Y-69480333D01*
X109501142Y-69432714D01*
X109405904Y-69385095D01*
X109120190Y-69385095D01*
X109024952Y-69432714D01*
X108977333Y-69480333D01*
X108929714Y-69575571D01*
X108929714Y-69766047D01*
X108977333Y-69861285D01*
D11*
X108799857Y-87550857D02*
X108799857Y-88750857D01*
X108799857Y-87608000D02*
X108685571Y-87550857D01*
X108457000Y-87550857D01*
X108342714Y-87608000D01*
X108285571Y-87665142D01*
X108228428Y-87779428D01*
X108228428Y-88122285D01*
X108285571Y-88236571D01*
X108342714Y-88293714D01*
X108457000Y-88350857D01*
X108685571Y-88350857D01*
X108799857Y-88293714D01*
X107714142Y-88350857D02*
X107714142Y-87550857D01*
X107714142Y-87150857D02*
X107771285Y-87208000D01*
X107714142Y-87265142D01*
X107657000Y-87208000D01*
X107714142Y-87150857D01*
X107714142Y-87265142D01*
X107314142Y-87150857D02*
X106628428Y-87150857D01*
X106971285Y-88350857D02*
X106971285Y-87150857D01*
X105771285Y-88293714D02*
X105885571Y-88350857D01*
X106114142Y-88350857D01*
X106228428Y-88293714D01*
X106285571Y-88179428D01*
X106285571Y-87722285D01*
X106228428Y-87608000D01*
X106114142Y-87550857D01*
X105885571Y-87550857D01*
X105771285Y-87608000D01*
X105714142Y-87722285D01*
X105714142Y-87836571D01*
X106285571Y-87950857D01*
X105028428Y-88350857D02*
X105142714Y-88293714D01*
X105199857Y-88179428D01*
X105199857Y-87150857D01*
X104114142Y-88293714D02*
X104228428Y-88350857D01*
X104457000Y-88350857D01*
X104571285Y-88293714D01*
X104628428Y-88179428D01*
X104628428Y-87722285D01*
X104571285Y-87608000D01*
X104457000Y-87550857D01*
X104228428Y-87550857D01*
X104114142Y-87608000D01*
X104057000Y-87722285D01*
X104057000Y-87836571D01*
X104628428Y-87950857D01*
X103657000Y-88350857D02*
X103028428Y-87550857D01*
X103657000Y-87550857D02*
X103028428Y-88350857D01*
X101828428Y-87150857D02*
X101428428Y-88350857D01*
X101028428Y-87150857D01*
X100628428Y-88236571D02*
X100571285Y-88293714D01*
X100628428Y-88350857D01*
X100685571Y-88293714D01*
X100628428Y-88236571D01*
X100628428Y-88350857D01*
X99428428Y-88350857D02*
X100114142Y-88350857D01*
X99771285Y-88350857D02*
X99771285Y-87150857D01*
X99885571Y-87322285D01*
X99999857Y-87436571D01*
X100114142Y-87493714D01*
X98685571Y-87150857D02*
X98571285Y-87150857D01*
X98457000Y-87208000D01*
X98399857Y-87265142D01*
X98342714Y-87379428D01*
X98285571Y-87608000D01*
X98285571Y-87893714D01*
X98342714Y-88122285D01*
X98399857Y-88236571D01*
X98457000Y-88293714D01*
X98571285Y-88350857D01*
X98685571Y-88350857D01*
X98799857Y-88293714D01*
X98857000Y-88236571D01*
X98914142Y-88122285D01*
X98971285Y-87893714D01*
X98971285Y-87608000D01*
X98914142Y-87379428D01*
X98857000Y-87265142D01*
X98799857Y-87208000D01*
X98685571Y-87150857D01*
X97771285Y-87893714D02*
X96857000Y-87893714D01*
X96285571Y-88350857D02*
X96285571Y-87150857D01*
X95714142Y-87550857D02*
X95714142Y-88350857D01*
X95714142Y-87665142D02*
X95657000Y-87608000D01*
X95542714Y-87550857D01*
X95371285Y-87550857D01*
X95257000Y-87608000D01*
X95199857Y-87722285D01*
X95199857Y-88350857D01*
X94799857Y-87550857D02*
X94342714Y-87550857D01*
X94628428Y-87150857D02*
X94628428Y-88179428D01*
X94571285Y-88293714D01*
X94457000Y-88350857D01*
X94342714Y-88350857D01*
X93485571Y-88293714D02*
X93599857Y-88350857D01*
X93828428Y-88350857D01*
X93942714Y-88293714D01*
X93999857Y-88179428D01*
X93999857Y-87722285D01*
X93942714Y-87608000D01*
X93828428Y-87550857D01*
X93599857Y-87550857D01*
X93485571Y-87608000D01*
X93428428Y-87722285D01*
X93428428Y-87836571D01*
X93999857Y-87950857D01*
X92914142Y-88350857D02*
X92914142Y-87550857D01*
X92914142Y-87779428D02*
X92857000Y-87665142D01*
X92799857Y-87608000D01*
X92685571Y-87550857D01*
X92571285Y-87550857D01*
X92342714Y-87550857D02*
X91885571Y-87550857D01*
X92171285Y-88350857D02*
X92171285Y-87322285D01*
X92114142Y-87208000D01*
X91999857Y-87150857D01*
X91885571Y-87150857D01*
X90971285Y-88350857D02*
X90971285Y-87722285D01*
X91028428Y-87608000D01*
X91142714Y-87550857D01*
X91371285Y-87550857D01*
X91485571Y-87608000D01*
X90971285Y-88293714D02*
X91085571Y-88350857D01*
X91371285Y-88350857D01*
X91485571Y-88293714D01*
X91542714Y-88179428D01*
X91542714Y-88065142D01*
X91485571Y-87950857D01*
X91371285Y-87893714D01*
X91085571Y-87893714D01*
X90971285Y-87836571D01*
X89885571Y-88293714D02*
X89999857Y-88350857D01*
X90228428Y-88350857D01*
X90342714Y-88293714D01*
X90399857Y-88236571D01*
X90457000Y-88122285D01*
X90457000Y-87779428D01*
X90399857Y-87665142D01*
X90342714Y-87608000D01*
X90228428Y-87550857D01*
X89999857Y-87550857D01*
X89885571Y-87608000D01*
X88914142Y-88293714D02*
X89028428Y-88350857D01*
X89257000Y-88350857D01*
X89371285Y-88293714D01*
X89428428Y-88179428D01*
X89428428Y-87722285D01*
X89371285Y-87608000D01*
X89257000Y-87550857D01*
X89028428Y-87550857D01*
X88914142Y-87608000D01*
X88857000Y-87722285D01*
X88857000Y-87836571D01*
X89428428Y-87950857D01*
D10*
X92832380Y-95896380D02*
X92356190Y-95563047D01*
X92832380Y-95324952D02*
X91832380Y-95324952D01*
X91832380Y-95705904D01*
X91880000Y-95801142D01*
X91927619Y-95848761D01*
X92022857Y-95896380D01*
X92165714Y-95896380D01*
X92260952Y-95848761D01*
X92308571Y-95801142D01*
X92356190Y-95705904D01*
X92356190Y-95324952D01*
X91832380Y-96182095D02*
X91832380Y-96753523D01*
X92832380Y-96467809D02*
X91832380Y-96467809D01*
X92784761Y-97039238D02*
X92832380Y-97182095D01*
X92832380Y-97420190D01*
X92784761Y-97515428D01*
X92737142Y-97563047D01*
X92641904Y-97610666D01*
X92546666Y-97610666D01*
X92451428Y-97563047D01*
X92403809Y-97515428D01*
X92356190Y-97420190D01*
X92308571Y-97229714D01*
X92260952Y-97134476D01*
X92213333Y-97086857D01*
X92118095Y-97039238D01*
X92022857Y-97039238D01*
X91927619Y-97086857D01*
X91880000Y-97134476D01*
X91832380Y-97229714D01*
X91832380Y-97467809D01*
X91880000Y-97610666D01*
X108723380Y-96888523D02*
X108723380Y-96412333D01*
X109199571Y-96364714D01*
X109151952Y-96412333D01*
X109104333Y-96507571D01*
X109104333Y-96745666D01*
X109151952Y-96840904D01*
X109199571Y-96888523D01*
X109294809Y-96936142D01*
X109532904Y-96936142D01*
X109628142Y-96888523D01*
X109675761Y-96840904D01*
X109723380Y-96745666D01*
X109723380Y-96507571D01*
X109675761Y-96412333D01*
X109628142Y-96364714D01*
X108723380Y-97221857D02*
X109723380Y-97555190D01*
X108723380Y-97888523D01*
X90292380Y-69385095D02*
X89292380Y-69385095D01*
X89292380Y-69623190D01*
X89340000Y-69766047D01*
X89435238Y-69861285D01*
X89530476Y-69908904D01*
X89720952Y-69956523D01*
X89863809Y-69956523D01*
X90054285Y-69908904D01*
X90149523Y-69861285D01*
X90244761Y-69766047D01*
X90292380Y-69623190D01*
X90292380Y-69385095D01*
X96912380Y-95182095D02*
X96912380Y-95753523D01*
X97912380Y-95467809D02*
X96912380Y-95467809D01*
X96912380Y-95991619D02*
X97912380Y-96658285D01*
X96912380Y-96658285D02*
X97912380Y-95991619D01*
X97912380Y-97039238D02*
X96912380Y-97039238D01*
X96912380Y-97277333D01*
X96960000Y-97420190D01*
X97055238Y-97515428D01*
X97150476Y-97563047D01*
X97340952Y-97610666D01*
X97483809Y-97610666D01*
X97674285Y-97563047D01*
X97769523Y-97515428D01*
X97864761Y-97420190D01*
X97912380Y-97277333D01*
X97912380Y-97039238D01*
X104516380Y-69448571D02*
X103849714Y-69448571D01*
X104040190Y-69448571D02*
X103944952Y-69496190D01*
X103897333Y-69543809D01*
X103849714Y-69639047D01*
X103849714Y-69734285D01*
X84387000Y-69908904D02*
X84339380Y-69813666D01*
X84339380Y-69670809D01*
X84387000Y-69527952D01*
X84482238Y-69432714D01*
X84577476Y-69385095D01*
X84767952Y-69337476D01*
X84910809Y-69337476D01*
X85101285Y-69385095D01*
X85196523Y-69432714D01*
X85291761Y-69527952D01*
X85339380Y-69670809D01*
X85339380Y-69766047D01*
X85291761Y-69908904D01*
X85244142Y-69956523D01*
X84910809Y-69956523D01*
X84910809Y-69766047D01*
X98801380Y-69361285D02*
X97801380Y-69361285D01*
X98801380Y-69932714D01*
X97801380Y-69932714D01*
%TO.C,J8*%
X84966333Y-76084380D02*
X84966333Y-76798666D01*
X85013952Y-76941523D01*
X85109190Y-77036761D01*
X85252047Y-77084380D01*
X85347285Y-77084380D01*
X84347285Y-76512952D02*
X84442523Y-76465333D01*
X84490142Y-76417714D01*
X84537761Y-76322476D01*
X84537761Y-76274857D01*
X84490142Y-76179619D01*
X84442523Y-76132000D01*
X84347285Y-76084380D01*
X84156809Y-76084380D01*
X84061571Y-76132000D01*
X84013952Y-76179619D01*
X83966333Y-76274857D01*
X83966333Y-76322476D01*
X84013952Y-76417714D01*
X84061571Y-76465333D01*
X84156809Y-76512952D01*
X84347285Y-76512952D01*
X84442523Y-76560571D01*
X84490142Y-76608190D01*
X84537761Y-76703428D01*
X84537761Y-76893904D01*
X84490142Y-76989142D01*
X84442523Y-77036761D01*
X84347285Y-77084380D01*
X84156809Y-77084380D01*
X84061571Y-77036761D01*
X84013952Y-76989142D01*
X83966333Y-76893904D01*
X83966333Y-76703428D01*
X84013952Y-76608190D01*
X84061571Y-76560571D01*
X84156809Y-76512952D01*
%TO.C,JP3*%
X102484333Y-79513380D02*
X102484333Y-80227666D01*
X102531952Y-80370523D01*
X102627190Y-80465761D01*
X102770047Y-80513380D01*
X102865285Y-80513380D01*
X102008142Y-80513380D02*
X102008142Y-79513380D01*
X101627190Y-79513380D01*
X101531952Y-79561000D01*
X101484333Y-79608619D01*
X101436714Y-79703857D01*
X101436714Y-79846714D01*
X101484333Y-79941952D01*
X101531952Y-79989571D01*
X101627190Y-80037190D01*
X102008142Y-80037190D01*
X101103380Y-79513380D02*
X100484333Y-79513380D01*
X100817666Y-79894333D01*
X100674809Y-79894333D01*
X100579571Y-79941952D01*
X100531952Y-79989571D01*
X100484333Y-80084809D01*
X100484333Y-80322904D01*
X100531952Y-80418142D01*
X100579571Y-80465761D01*
X100674809Y-80513380D01*
X100960523Y-80513380D01*
X101055761Y-80465761D01*
X101103380Y-80418142D01*
%TO.C,JP1*%
X102357333Y-76465380D02*
X102357333Y-77179666D01*
X102404952Y-77322523D01*
X102500190Y-77417761D01*
X102643047Y-77465380D01*
X102738285Y-77465380D01*
X101881142Y-77465380D02*
X101881142Y-76465380D01*
X101500190Y-76465380D01*
X101404952Y-76513000D01*
X101357333Y-76560619D01*
X101309714Y-76655857D01*
X101309714Y-76798714D01*
X101357333Y-76893952D01*
X101404952Y-76941571D01*
X101500190Y-76989190D01*
X101881142Y-76989190D01*
X100357333Y-77465380D02*
X100928761Y-77465380D01*
X100643047Y-77465380D02*
X100643047Y-76465380D01*
X100738285Y-76608238D01*
X100833523Y-76703476D01*
X100928761Y-76751095D01*
%TO.C,JP5*%
X116835333Y-95769380D02*
X116835333Y-96483666D01*
X116882952Y-96626523D01*
X116978190Y-96721761D01*
X117121047Y-96769380D01*
X117216285Y-96769380D01*
X116359142Y-96769380D02*
X116359142Y-95769380D01*
X115978190Y-95769380D01*
X115882952Y-95817000D01*
X115835333Y-95864619D01*
X115787714Y-95959857D01*
X115787714Y-96102714D01*
X115835333Y-96197952D01*
X115882952Y-96245571D01*
X115978190Y-96293190D01*
X116359142Y-96293190D01*
X114882952Y-95769380D02*
X115359142Y-95769380D01*
X115406761Y-96245571D01*
X115359142Y-96197952D01*
X115263904Y-96150333D01*
X115025809Y-96150333D01*
X114930571Y-96197952D01*
X114882952Y-96245571D01*
X114835333Y-96340809D01*
X114835333Y-96578904D01*
X114882952Y-96674142D01*
X114930571Y-96721761D01*
X115025809Y-96769380D01*
X115263904Y-96769380D01*
X115359142Y-96721761D01*
X115406761Y-96674142D01*
%TO.C,JP4*%
X86736333Y-88149380D02*
X86736333Y-88863666D01*
X86783952Y-89006523D01*
X86879190Y-89101761D01*
X87022047Y-89149380D01*
X87117285Y-89149380D01*
X86260142Y-89149380D02*
X86260142Y-88149380D01*
X85879190Y-88149380D01*
X85783952Y-88197000D01*
X85736333Y-88244619D01*
X85688714Y-88339857D01*
X85688714Y-88482714D01*
X85736333Y-88577952D01*
X85783952Y-88625571D01*
X85879190Y-88673190D01*
X86260142Y-88673190D01*
X84831571Y-88482714D02*
X84831571Y-89149380D01*
X85069666Y-88101761D02*
X85307761Y-88816047D01*
X84688714Y-88816047D01*
%TO.C,JP2*%
X110866333Y-79640380D02*
X110866333Y-80354666D01*
X110913952Y-80497523D01*
X111009190Y-80592761D01*
X111152047Y-80640380D01*
X111247285Y-80640380D01*
X110390142Y-80640380D02*
X110390142Y-79640380D01*
X110009190Y-79640380D01*
X109913952Y-79688000D01*
X109866333Y-79735619D01*
X109818714Y-79830857D01*
X109818714Y-79973714D01*
X109866333Y-80068952D01*
X109913952Y-80116571D01*
X110009190Y-80164190D01*
X110390142Y-80164190D01*
X109437761Y-79735619D02*
X109390142Y-79688000D01*
X109294904Y-79640380D01*
X109056809Y-79640380D01*
X108961571Y-79688000D01*
X108913952Y-79735619D01*
X108866333Y-79830857D01*
X108866333Y-79926095D01*
X108913952Y-80068952D01*
X109485380Y-80640380D01*
X108866333Y-80640380D01*
D12*
%TO.C,J8*%
X83430000Y-74600000D02*
X83430000Y-75930000D01*
X83430000Y-75930000D02*
X84760000Y-75930000D01*
X86030000Y-73330000D02*
X86030000Y-75930000D01*
X116570000Y-70730000D02*
X116570000Y-75930000D01*
X83430000Y-70730000D02*
X116570000Y-70730000D01*
X86030000Y-75930000D02*
X116570000Y-75930000D01*
X83430000Y-73330000D02*
X86030000Y-73330000D01*
X83430000Y-70730000D02*
X83430000Y-73330000D01*
%TO.C,JP3*%
X96045000Y-80680000D02*
X100145000Y-80680000D01*
X96795000Y-78480000D02*
X97095000Y-78180000D01*
X96495000Y-78180000D02*
X97095000Y-78180000D01*
X96795000Y-78480000D02*
X96495000Y-78180000D01*
X100145000Y-80680000D02*
X100145000Y-78680000D01*
X100145000Y-78680000D02*
X96045000Y-78680000D01*
X96045000Y-78680000D02*
X96045000Y-80680000D01*
%TO.C,JP1*%
X96045000Y-76140000D02*
X96045000Y-78140000D01*
X96045000Y-78140000D02*
X100145000Y-78140000D01*
X100145000Y-76140000D02*
X96045000Y-76140000D01*
X96495000Y-75640000D02*
X97095000Y-75640000D01*
X96795000Y-75940000D02*
X96495000Y-75640000D01*
X96795000Y-75940000D02*
X97095000Y-75640000D01*
X100145000Y-78140000D02*
X100145000Y-76140000D01*
%TO.C,JP5*%
X111935000Y-97571000D02*
X114735000Y-97571000D01*
X111935000Y-95571000D02*
X111935000Y-97571000D01*
X114735000Y-95571000D02*
X111935000Y-95571000D01*
X114735000Y-97571000D02*
X114735000Y-95571000D01*
%TO.C,JP4*%
X87303000Y-85919000D02*
X84503000Y-85919000D01*
X84503000Y-87919000D02*
X87303000Y-87919000D01*
X87303000Y-87919000D02*
X87303000Y-85919000D01*
X84503000Y-85919000D02*
X84503000Y-87919000D01*
%TO.C,REF\u002A\u002A*%
G36*
X113745275Y-83752931D02*
G01*
X113829095Y-84197555D01*
X114447667Y-84452551D01*
X114818707Y-84200246D01*
X114892144Y-84150506D01*
X114989499Y-84085218D01*
X115073787Y-84029454D01*
X115140631Y-83986078D01*
X115185654Y-83957953D01*
X115204478Y-83947942D01*
X115216039Y-83955061D01*
X115250596Y-83984894D01*
X115302894Y-84033852D01*
X115368500Y-84097440D01*
X115442983Y-84171163D01*
X115521913Y-84250525D01*
X115600856Y-84331031D01*
X115675384Y-84408185D01*
X115741063Y-84477493D01*
X115793463Y-84534457D01*
X115828153Y-84574584D01*
X115840701Y-84593377D01*
X115837782Y-84601451D01*
X115817571Y-84637469D01*
X115780663Y-84696744D01*
X115730050Y-84774630D01*
X115668725Y-84866481D01*
X115599679Y-84967650D01*
X115561787Y-85022826D01*
X115496606Y-85118884D01*
X115440723Y-85202717D01*
X115397117Y-85269777D01*
X115368769Y-85315519D01*
X115358657Y-85335396D01*
X115358823Y-85336497D01*
X115367743Y-85361694D01*
X115388206Y-85413147D01*
X115417360Y-85484135D01*
X115452353Y-85567935D01*
X115490332Y-85657828D01*
X115528445Y-85747091D01*
X115563839Y-85829003D01*
X115593662Y-85896843D01*
X115615061Y-85943890D01*
X115625184Y-85963422D01*
X115631174Y-85965155D01*
X115667566Y-85972969D01*
X115732427Y-85985915D01*
X115820565Y-86002979D01*
X115926787Y-86023151D01*
X116045902Y-86045418D01*
X116108683Y-86057223D01*
X116223912Y-86079748D01*
X116324662Y-86100550D01*
X116405426Y-86118435D01*
X116460698Y-86132208D01*
X116484971Y-86140674D01*
X116489331Y-86149066D01*
X116496563Y-86190072D01*
X116502246Y-86258368D01*
X116506382Y-86347529D01*
X116508977Y-86451128D01*
X116510036Y-86562740D01*
X116509561Y-86675938D01*
X116507559Y-86784296D01*
X116504033Y-86881389D01*
X116498987Y-86960790D01*
X116492427Y-87016072D01*
X116484356Y-87040810D01*
X116479458Y-87043600D01*
X116442930Y-87055569D01*
X116379565Y-87071405D01*
X116296686Y-87089374D01*
X116201618Y-87107741D01*
X116169542Y-87113591D01*
X116021393Y-87140798D01*
X115904961Y-87162663D01*
X115816209Y-87180093D01*
X115751103Y-87193996D01*
X115705606Y-87205277D01*
X115675682Y-87214843D01*
X115657294Y-87223601D01*
X115646407Y-87232457D01*
X115645142Y-87233943D01*
X115627338Y-87264931D01*
X115600994Y-87321634D01*
X115568661Y-87397399D01*
X115532893Y-87485574D01*
X115496244Y-87579507D01*
X115461266Y-87672547D01*
X115430513Y-87758041D01*
X115406538Y-87829336D01*
X115391895Y-87879782D01*
X115389136Y-87902726D01*
X115390981Y-87905703D01*
X115410075Y-87934493D01*
X115445984Y-87987595D01*
X115495378Y-88060117D01*
X115554927Y-88147167D01*
X115621303Y-88243854D01*
X115639520Y-88270456D01*
X115703577Y-88365875D01*
X115758937Y-88451212D01*
X115802439Y-88521405D01*
X115830924Y-88571394D01*
X115841232Y-88596116D01*
X115839011Y-88602616D01*
X115815858Y-88634644D01*
X115770177Y-88686945D01*
X115705241Y-88755999D01*
X115624319Y-88838286D01*
X115530685Y-88930286D01*
X115477165Y-88981781D01*
X115392542Y-89061983D01*
X115318475Y-89130678D01*
X115258941Y-89184252D01*
X115217917Y-89219085D01*
X115199381Y-89231563D01*
X115186646Y-89226938D01*
X115147436Y-89205057D01*
X115090495Y-89169273D01*
X115023250Y-89124117D01*
X114975438Y-89091165D01*
X114879985Y-89025727D01*
X114778125Y-88956228D01*
X114685088Y-88893075D01*
X114502832Y-88769800D01*
X114349841Y-88852520D01*
X114313817Y-88871613D01*
X114248303Y-88904272D01*
X114197640Y-88926819D01*
X114170564Y-88935226D01*
X114161703Y-88924430D01*
X114139699Y-88883323D01*
X114107199Y-88815549D01*
X114066010Y-88725409D01*
X114017942Y-88617205D01*
X113964802Y-88495237D01*
X113908399Y-88363808D01*
X113850542Y-88227218D01*
X113793038Y-88089767D01*
X113737697Y-87955758D01*
X113686326Y-87829491D01*
X113640735Y-87715268D01*
X113602732Y-87617390D01*
X113574124Y-87540157D01*
X113556721Y-87487871D01*
X113552331Y-87464833D01*
X113552628Y-87464160D01*
X113573077Y-87442863D01*
X113615850Y-87409508D01*
X113672117Y-87371011D01*
X113689877Y-87359256D01*
X113825014Y-87247735D01*
X113936856Y-87114906D01*
X114022755Y-86966298D01*
X114080062Y-86807440D01*
X114106131Y-86643860D01*
X114098313Y-86481088D01*
X114066644Y-86336315D01*
X114009782Y-86190124D01*
X113926888Y-86059703D01*
X113813131Y-85935813D01*
X113768433Y-85896235D01*
X113623935Y-85798723D01*
X113467838Y-85733050D01*
X113304667Y-85698630D01*
X113138943Y-85694874D01*
X112975192Y-85721194D01*
X112817936Y-85777003D01*
X112671698Y-85861714D01*
X112541004Y-85974737D01*
X112430374Y-86115487D01*
X112409105Y-86150342D01*
X112336810Y-86309655D01*
X112298415Y-86475552D01*
X112292914Y-86643737D01*
X112319301Y-86809913D01*
X112376570Y-86969784D01*
X112463717Y-87119053D01*
X112579736Y-87253423D01*
X112723622Y-87368599D01*
X112728294Y-87371702D01*
X112783964Y-87410933D01*
X112825689Y-87444286D01*
X112844746Y-87464833D01*
X112842342Y-87480941D01*
X112827391Y-87527844D01*
X112800881Y-87600539D01*
X112764620Y-87694725D01*
X112720416Y-87806098D01*
X112670076Y-87930358D01*
X112615407Y-88063202D01*
X112558218Y-88200327D01*
X112500316Y-88337432D01*
X112443510Y-88470215D01*
X112389606Y-88594374D01*
X112340412Y-88705606D01*
X112297737Y-88799609D01*
X112263387Y-88872082D01*
X112239171Y-88918722D01*
X112226897Y-88935226D01*
X112216689Y-88932991D01*
X112176586Y-88916926D01*
X112117318Y-88888759D01*
X112047619Y-88852520D01*
X111894629Y-88769800D01*
X111712373Y-88893075D01*
X111658527Y-88929579D01*
X111558374Y-88997784D01*
X111458525Y-89066098D01*
X111374211Y-89124117D01*
X111327679Y-89155736D01*
X111267200Y-89195020D01*
X111222357Y-89221912D01*
X111200455Y-89231883D01*
X111191045Y-89227650D01*
X111157031Y-89201721D01*
X111104595Y-89156070D01*
X111038301Y-89095186D01*
X110962713Y-89023561D01*
X110882396Y-88945683D01*
X110801913Y-88866045D01*
X110725829Y-88789135D01*
X110658707Y-88719445D01*
X110605112Y-88661464D01*
X110569608Y-88619684D01*
X110556759Y-88598593D01*
X110557500Y-88594581D01*
X110572793Y-88561920D01*
X110605462Y-88505412D01*
X110652350Y-88430163D01*
X110710301Y-88341275D01*
X110776157Y-88243854D01*
X110794627Y-88216982D01*
X110859482Y-88122423D01*
X110916609Y-88038827D01*
X110962678Y-87971084D01*
X110994359Y-87924086D01*
X111008324Y-87902726D01*
X111008668Y-87901811D01*
X111004546Y-87875678D01*
X110988807Y-87822740D01*
X110964004Y-87749647D01*
X110932689Y-87663052D01*
X110897417Y-87569608D01*
X110860740Y-87475965D01*
X110825212Y-87388777D01*
X110793386Y-87314695D01*
X110767816Y-87260371D01*
X110751053Y-87232457D01*
X110749374Y-87230724D01*
X110737372Y-87221956D01*
X110717103Y-87213115D01*
X110684529Y-87203292D01*
X110635616Y-87191583D01*
X110566327Y-87177080D01*
X110472625Y-87158876D01*
X110350476Y-87136066D01*
X110195842Y-87107741D01*
X110163770Y-87101780D01*
X110071893Y-87083352D01*
X109994607Y-87065892D01*
X109939236Y-87051133D01*
X109913105Y-87040810D01*
X109908733Y-87032197D01*
X109901445Y-86990826D01*
X109895669Y-86922241D01*
X109891410Y-86832868D01*
X109888673Y-86729135D01*
X109887462Y-86617465D01*
X109887782Y-86504287D01*
X109889636Y-86396026D01*
X109893030Y-86299108D01*
X109897967Y-86219959D01*
X109904452Y-86165006D01*
X109912489Y-86140674D01*
X109920696Y-86137079D01*
X109961519Y-86125748D01*
X110030524Y-86109722D01*
X110122203Y-86090195D01*
X110231050Y-86068362D01*
X110351558Y-86045418D01*
X110417357Y-86033159D01*
X110530135Y-86011901D01*
X110627207Y-85993287D01*
X110703382Y-85978328D01*
X110753469Y-85968036D01*
X110772276Y-85963422D01*
X110772983Y-85962471D01*
X110784961Y-85938310D01*
X110807794Y-85887694D01*
X110838630Y-85817338D01*
X110874613Y-85733958D01*
X110912891Y-85644270D01*
X110950609Y-85554989D01*
X110984913Y-85472832D01*
X111012949Y-85404513D01*
X111031864Y-85356748D01*
X111038803Y-85336254D01*
X111035742Y-85329043D01*
X111015372Y-85294728D01*
X110978422Y-85236970D01*
X110927860Y-85160299D01*
X110866657Y-85069248D01*
X110797781Y-84968350D01*
X110759994Y-84913093D01*
X110694782Y-84816215D01*
X110638871Y-84731193D01*
X110595241Y-84662662D01*
X110566877Y-84615260D01*
X110556759Y-84593623D01*
X110563790Y-84581887D01*
X110593197Y-84546818D01*
X110641441Y-84493745D01*
X110704093Y-84427164D01*
X110776725Y-84351574D01*
X110854908Y-84271472D01*
X110934214Y-84191354D01*
X111010213Y-84115718D01*
X111078478Y-84049062D01*
X111134580Y-83995882D01*
X111174090Y-83960676D01*
X111192579Y-83947942D01*
X111202843Y-83952893D01*
X111240530Y-83975857D01*
X111301348Y-84014938D01*
X111380913Y-84067272D01*
X111474843Y-84129996D01*
X111578754Y-84200246D01*
X111949794Y-84452551D01*
X112259080Y-84325053D01*
X112568365Y-84197555D01*
X112652186Y-83752931D01*
X112736006Y-83308307D01*
X113661454Y-83308307D01*
X113745275Y-83752931D01*
G37*
D13*
X113745275Y-83752931D02*
X113829095Y-84197555D01*
X114447667Y-84452551D01*
X114818707Y-84200246D01*
X114892144Y-84150506D01*
X114989499Y-84085218D01*
X115073787Y-84029454D01*
X115140631Y-83986078D01*
X115185654Y-83957953D01*
X115204478Y-83947942D01*
X115216039Y-83955061D01*
X115250596Y-83984894D01*
X115302894Y-84033852D01*
X115368500Y-84097440D01*
X115442983Y-84171163D01*
X115521913Y-84250525D01*
X115600856Y-84331031D01*
X115675384Y-84408185D01*
X115741063Y-84477493D01*
X115793463Y-84534457D01*
X115828153Y-84574584D01*
X115840701Y-84593377D01*
X115837782Y-84601451D01*
X115817571Y-84637469D01*
X115780663Y-84696744D01*
X115730050Y-84774630D01*
X115668725Y-84866481D01*
X115599679Y-84967650D01*
X115561787Y-85022826D01*
X115496606Y-85118884D01*
X115440723Y-85202717D01*
X115397117Y-85269777D01*
X115368769Y-85315519D01*
X115358657Y-85335396D01*
X115358823Y-85336497D01*
X115367743Y-85361694D01*
X115388206Y-85413147D01*
X115417360Y-85484135D01*
X115452353Y-85567935D01*
X115490332Y-85657828D01*
X115528445Y-85747091D01*
X115563839Y-85829003D01*
X115593662Y-85896843D01*
X115615061Y-85943890D01*
X115625184Y-85963422D01*
X115631174Y-85965155D01*
X115667566Y-85972969D01*
X115732427Y-85985915D01*
X115820565Y-86002979D01*
X115926787Y-86023151D01*
X116045902Y-86045418D01*
X116108683Y-86057223D01*
X116223912Y-86079748D01*
X116324662Y-86100550D01*
X116405426Y-86118435D01*
X116460698Y-86132208D01*
X116484971Y-86140674D01*
X116489331Y-86149066D01*
X116496563Y-86190072D01*
X116502246Y-86258368D01*
X116506382Y-86347529D01*
X116508977Y-86451128D01*
X116510036Y-86562740D01*
X116509561Y-86675938D01*
X116507559Y-86784296D01*
X116504033Y-86881389D01*
X116498987Y-86960790D01*
X116492427Y-87016072D01*
X116484356Y-87040810D01*
X116479458Y-87043600D01*
X116442930Y-87055569D01*
X116379565Y-87071405D01*
X116296686Y-87089374D01*
X116201618Y-87107741D01*
X116169542Y-87113591D01*
X116021393Y-87140798D01*
X115904961Y-87162663D01*
X115816209Y-87180093D01*
X115751103Y-87193996D01*
X115705606Y-87205277D01*
X115675682Y-87214843D01*
X115657294Y-87223601D01*
X115646407Y-87232457D01*
X115645142Y-87233943D01*
X115627338Y-87264931D01*
X115600994Y-87321634D01*
X115568661Y-87397399D01*
X115532893Y-87485574D01*
X115496244Y-87579507D01*
X115461266Y-87672547D01*
X115430513Y-87758041D01*
X115406538Y-87829336D01*
X115391895Y-87879782D01*
X115389136Y-87902726D01*
X115390981Y-87905703D01*
X115410075Y-87934493D01*
X115445984Y-87987595D01*
X115495378Y-88060117D01*
X115554927Y-88147167D01*
X115621303Y-88243854D01*
X115639520Y-88270456D01*
X115703577Y-88365875D01*
X115758937Y-88451212D01*
X115802439Y-88521405D01*
X115830924Y-88571394D01*
X115841232Y-88596116D01*
X115839011Y-88602616D01*
X115815858Y-88634644D01*
X115770177Y-88686945D01*
X115705241Y-88755999D01*
X115624319Y-88838286D01*
X115530685Y-88930286D01*
X115477165Y-88981781D01*
X115392542Y-89061983D01*
X115318475Y-89130678D01*
X115258941Y-89184252D01*
X115217917Y-89219085D01*
X115199381Y-89231563D01*
X115186646Y-89226938D01*
X115147436Y-89205057D01*
X115090495Y-89169273D01*
X115023250Y-89124117D01*
X114975438Y-89091165D01*
X114879985Y-89025727D01*
X114778125Y-88956228D01*
X114685088Y-88893075D01*
X114502832Y-88769800D01*
X114349841Y-88852520D01*
X114313817Y-88871613D01*
X114248303Y-88904272D01*
X114197640Y-88926819D01*
X114170564Y-88935226D01*
X114161703Y-88924430D01*
X114139699Y-88883323D01*
X114107199Y-88815549D01*
X114066010Y-88725409D01*
X114017942Y-88617205D01*
X113964802Y-88495237D01*
X113908399Y-88363808D01*
X113850542Y-88227218D01*
X113793038Y-88089767D01*
X113737697Y-87955758D01*
X113686326Y-87829491D01*
X113640735Y-87715268D01*
X113602732Y-87617390D01*
X113574124Y-87540157D01*
X113556721Y-87487871D01*
X113552331Y-87464833D01*
X113552628Y-87464160D01*
X113573077Y-87442863D01*
X113615850Y-87409508D01*
X113672117Y-87371011D01*
X113689877Y-87359256D01*
X113825014Y-87247735D01*
X113936856Y-87114906D01*
X114022755Y-86966298D01*
X114080062Y-86807440D01*
X114106131Y-86643860D01*
X114098313Y-86481088D01*
X114066644Y-86336315D01*
X114009782Y-86190124D01*
X113926888Y-86059703D01*
X113813131Y-85935813D01*
X113768433Y-85896235D01*
X113623935Y-85798723D01*
X113467838Y-85733050D01*
X113304667Y-85698630D01*
X113138943Y-85694874D01*
X112975192Y-85721194D01*
X112817936Y-85777003D01*
X112671698Y-85861714D01*
X112541004Y-85974737D01*
X112430374Y-86115487D01*
X112409105Y-86150342D01*
X112336810Y-86309655D01*
X112298415Y-86475552D01*
X112292914Y-86643737D01*
X112319301Y-86809913D01*
X112376570Y-86969784D01*
X112463717Y-87119053D01*
X112579736Y-87253423D01*
X112723622Y-87368599D01*
X112728294Y-87371702D01*
X112783964Y-87410933D01*
X112825689Y-87444286D01*
X112844746Y-87464833D01*
X112842342Y-87480941D01*
X112827391Y-87527844D01*
X112800881Y-87600539D01*
X112764620Y-87694725D01*
X112720416Y-87806098D01*
X112670076Y-87930358D01*
X112615407Y-88063202D01*
X112558218Y-88200327D01*
X112500316Y-88337432D01*
X112443510Y-88470215D01*
X112389606Y-88594374D01*
X112340412Y-88705606D01*
X112297737Y-88799609D01*
X112263387Y-88872082D01*
X112239171Y-88918722D01*
X112226897Y-88935226D01*
X112216689Y-88932991D01*
X112176586Y-88916926D01*
X112117318Y-88888759D01*
X112047619Y-88852520D01*
X111894629Y-88769800D01*
X111712373Y-88893075D01*
X111658527Y-88929579D01*
X111558374Y-88997784D01*
X111458525Y-89066098D01*
X111374211Y-89124117D01*
X111327679Y-89155736D01*
X111267200Y-89195020D01*
X111222357Y-89221912D01*
X111200455Y-89231883D01*
X111191045Y-89227650D01*
X111157031Y-89201721D01*
X111104595Y-89156070D01*
X111038301Y-89095186D01*
X110962713Y-89023561D01*
X110882396Y-88945683D01*
X110801913Y-88866045D01*
X110725829Y-88789135D01*
X110658707Y-88719445D01*
X110605112Y-88661464D01*
X110569608Y-88619684D01*
X110556759Y-88598593D01*
X110557500Y-88594581D01*
X110572793Y-88561920D01*
X110605462Y-88505412D01*
X110652350Y-88430163D01*
X110710301Y-88341275D01*
X110776157Y-88243854D01*
X110794627Y-88216982D01*
X110859482Y-88122423D01*
X110916609Y-88038827D01*
X110962678Y-87971084D01*
X110994359Y-87924086D01*
X111008324Y-87902726D01*
X111008668Y-87901811D01*
X111004546Y-87875678D01*
X110988807Y-87822740D01*
X110964004Y-87749647D01*
X110932689Y-87663052D01*
X110897417Y-87569608D01*
X110860740Y-87475965D01*
X110825212Y-87388777D01*
X110793386Y-87314695D01*
X110767816Y-87260371D01*
X110751053Y-87232457D01*
X110749374Y-87230724D01*
X110737372Y-87221956D01*
X110717103Y-87213115D01*
X110684529Y-87203292D01*
X110635616Y-87191583D01*
X110566327Y-87177080D01*
X110472625Y-87158876D01*
X110350476Y-87136066D01*
X110195842Y-87107741D01*
X110163770Y-87101780D01*
X110071893Y-87083352D01*
X109994607Y-87065892D01*
X109939236Y-87051133D01*
X109913105Y-87040810D01*
X109908733Y-87032197D01*
X109901445Y-86990826D01*
X109895669Y-86922241D01*
X109891410Y-86832868D01*
X109888673Y-86729135D01*
X109887462Y-86617465D01*
X109887782Y-86504287D01*
X109889636Y-86396026D01*
X109893030Y-86299108D01*
X109897967Y-86219959D01*
X109904452Y-86165006D01*
X109912489Y-86140674D01*
X109920696Y-86137079D01*
X109961519Y-86125748D01*
X110030524Y-86109722D01*
X110122203Y-86090195D01*
X110231050Y-86068362D01*
X110351558Y-86045418D01*
X110417357Y-86033159D01*
X110530135Y-86011901D01*
X110627207Y-85993287D01*
X110703382Y-85978328D01*
X110753469Y-85968036D01*
X110772276Y-85963422D01*
X110772983Y-85962471D01*
X110784961Y-85938310D01*
X110807794Y-85887694D01*
X110838630Y-85817338D01*
X110874613Y-85733958D01*
X110912891Y-85644270D01*
X110950609Y-85554989D01*
X110984913Y-85472832D01*
X111012949Y-85404513D01*
X111031864Y-85356748D01*
X111038803Y-85336254D01*
X111035742Y-85329043D01*
X111015372Y-85294728D01*
X110978422Y-85236970D01*
X110927860Y-85160299D01*
X110866657Y-85069248D01*
X110797781Y-84968350D01*
X110759994Y-84913093D01*
X110694782Y-84816215D01*
X110638871Y-84731193D01*
X110595241Y-84662662D01*
X110566877Y-84615260D01*
X110556759Y-84593623D01*
X110563790Y-84581887D01*
X110593197Y-84546818D01*
X110641441Y-84493745D01*
X110704093Y-84427164D01*
X110776725Y-84351574D01*
X110854908Y-84271472D01*
X110934214Y-84191354D01*
X111010213Y-84115718D01*
X111078478Y-84049062D01*
X111134580Y-83995882D01*
X111174090Y-83960676D01*
X111192579Y-83947942D01*
X111202843Y-83952893D01*
X111240530Y-83975857D01*
X111301348Y-84014938D01*
X111380913Y-84067272D01*
X111474843Y-84129996D01*
X111578754Y-84200246D01*
X111949794Y-84452551D01*
X112259080Y-84325053D01*
X112568365Y-84197555D01*
X112652186Y-83752931D01*
X112736006Y-83308307D01*
X113661454Y-83308307D01*
X113745275Y-83752931D01*
D12*
%TO.C,JP2*%
X110779000Y-76502000D02*
X108779000Y-76502000D01*
X110779000Y-79302000D02*
X110779000Y-76502000D01*
X108779000Y-79302000D02*
X110779000Y-79302000D01*
X108779000Y-76502000D02*
X108779000Y-79302000D01*
%TD*%
M02*
