%TF.GenerationSoftware,KiCad,Pcbnew,(6.0.9)*%
%TF.CreationDate,2023-02-09T17:36:23+01:00*%
%TF.ProjectId,piTelex_TW39_2.1.0,70695465-6c65-4785-9f54-5733395f322e,V2.1.0 -JK-*%
%TF.SameCoordinates,Original*%
%TF.FileFunction,Soldermask,Top*%
%TF.FilePolarity,Negative*%
%FSLAX46Y46*%
G04 Gerber Fmt 4.6, Leading zero omitted, Abs format (unit mm)*
G04 Created by KiCad (PCBNEW (6.0.9)) date 2023-02-09 17:36:23*
%MOMM*%
%LPD*%
G01*
G04 APERTURE LIST*
G04 Aperture macros list*
%AMRoundRect*
0 Rectangle with rounded corners*
0 $1 Rounding radius*
0 $2 $3 $4 $5 $6 $7 $8 $9 X,Y pos of 4 corners*
0 Add a 4 corners polygon primitive as box body*
4,1,4,$2,$3,$4,$5,$6,$7,$8,$9,$2,$3,0*
0 Add four circle primitives for the rounded corners*
1,1,$1+$1,$2,$3*
1,1,$1+$1,$4,$5*
1,1,$1+$1,$6,$7*
1,1,$1+$1,$8,$9*
0 Add four rect primitives between the rounded corners*
20,1,$1+$1,$2,$3,$4,$5,0*
20,1,$1+$1,$4,$5,$6,$7,0*
20,1,$1+$1,$6,$7,$8,$9,0*
20,1,$1+$1,$8,$9,$2,$3,0*%
G04 Aperture macros list end*
%ADD10R,1.000000X1.500000*%
%ADD11C,1.500000*%
%ADD12R,1.500000X1.000000*%
%ADD13C,2.000000*%
%ADD14C,2.400000*%
%ADD15O,2.400000X2.400000*%
%ADD16R,1.700000X1.700000*%
%ADD17O,1.700000X1.700000*%
%ADD18RoundRect,0.425000X-0.425000X0.425000X-0.425000X-0.425000X0.425000X-0.425000X0.425000X0.425000X0*%
%ADD19RoundRect,0.250000X0.450000X-0.350000X0.450000X0.350000X-0.450000X0.350000X-0.450000X-0.350000X0*%
%ADD20R,1.800000X1.800000*%
%ADD21C,1.800000*%
%ADD22RoundRect,0.400000X-0.400000X-0.400000X0.400000X-0.400000X0.400000X0.400000X-0.400000X0.400000X0*%
%ADD23C,1.600000*%
%ADD24RoundRect,0.250000X-0.350000X-0.450000X0.350000X-0.450000X0.350000X0.450000X-0.350000X0.450000X0*%
%ADD25R,1.300000X1.300000*%
%ADD26C,1.300000*%
%ADD27RoundRect,0.250000X0.620000X0.845000X-0.620000X0.845000X-0.620000X-0.845000X0.620000X-0.845000X0*%
%ADD28O,1.740000X2.190000*%
%ADD29C,1.440000*%
%ADD30RoundRect,0.250000X0.350000X0.450000X-0.350000X0.450000X-0.350000X-0.450000X0.350000X-0.450000X0*%
%ADD31R,2.000000X1.905000*%
%ADD32O,2.000000X1.905000*%
%ADD33RoundRect,0.250000X-0.620000X-0.845000X0.620000X-0.845000X0.620000X0.845000X-0.620000X0.845000X0*%
%ADD34R,2.300000X1.500000*%
%ADD35RoundRect,0.375000X0.775000X-0.375000X0.775000X0.375000X-0.775000X0.375000X-0.775000X-0.375000X0*%
%ADD36O,2.300000X1.500000*%
%ADD37RoundRect,0.250000X0.475000X-0.337500X0.475000X0.337500X-0.475000X0.337500X-0.475000X-0.337500X0*%
%ADD38R,1.600000X1.600000*%
%ADD39O,1.600000X1.600000*%
%ADD40C,4.500000*%
%ADD41R,1.740000X2.190000*%
%ADD42RoundRect,0.435000X-0.435000X-0.660000X0.435000X-0.660000X0.435000X0.660000X-0.435000X0.660000X0*%
%ADD43RoundRect,0.425000X0.425000X0.425000X-0.425000X0.425000X-0.425000X-0.425000X0.425000X-0.425000X0*%
%ADD44C,1.700000*%
G04 APERTURE END LIST*
D10*
%TO.C,JP3*%
X160709000Y-121661000D03*
X159409000Y-121661000D03*
%TD*%
D11*
%TO.C,TP7*%
X153963000Y-120518000D03*
%TD*%
%TO.C,TP6*%
X163742000Y-111628000D03*
%TD*%
%TO.C,TP5*%
X163742000Y-119375000D03*
%TD*%
%TO.C,TP4*%
X129960000Y-106675000D03*
%TD*%
%TO.C,TP3*%
X122340000Y-110485000D03*
%TD*%
%TO.C,TP2*%
X122340000Y-106675000D03*
%TD*%
D12*
%TO.C,JP2*%
X163488000Y-117612000D03*
X163488000Y-116312000D03*
%TD*%
D13*
%TO.C,TP1*%
X157392000Y-128392000D03*
%TD*%
D14*
%TO.C,R24*%
X159932000Y-112390000D03*
D15*
X129452000Y-112390000D03*
%TD*%
D16*
%TO.C,J7*%
X108370000Y-104770000D03*
D17*
X108370000Y-102230000D03*
X110910000Y-104770000D03*
X110910000Y-102230000D03*
X113450000Y-104770000D03*
D18*
X113450000Y-102230000D03*
D17*
X115990000Y-104770000D03*
X115990000Y-102230000D03*
D18*
X118530000Y-104770000D03*
D17*
X118530000Y-102230000D03*
X121070000Y-104770000D03*
X121070000Y-102230000D03*
X123610000Y-104770000D03*
D18*
X123610000Y-102230000D03*
D17*
X126150000Y-104770000D03*
X126150000Y-102230000D03*
X128690000Y-104770000D03*
X128690000Y-102230000D03*
X131230000Y-104770000D03*
D18*
X131230000Y-102230000D03*
D17*
X133770000Y-104770000D03*
X133770000Y-102230000D03*
X136310000Y-104770000D03*
X136310000Y-102230000D03*
D18*
X138850000Y-104770000D03*
D17*
X138850000Y-102230000D03*
X141390000Y-104770000D03*
X141390000Y-102230000D03*
X143930000Y-104770000D03*
D18*
X143930000Y-102230000D03*
D17*
X146470000Y-104770000D03*
X146470000Y-102230000D03*
X149010000Y-104770000D03*
D18*
X149010000Y-102230000D03*
D17*
X151550000Y-104770000D03*
X151550000Y-102230000D03*
X154090000Y-104770000D03*
X154090000Y-102230000D03*
D18*
X156630000Y-104770000D03*
D17*
X156630000Y-102230000D03*
%TD*%
D19*
%TO.C,R2*%
X125007000Y-111485000D03*
X125007000Y-109485000D03*
%TD*%
D20*
%TO.C,D1*%
X123610000Y-115184000D03*
D21*
X126150000Y-115184000D03*
%TD*%
D22*
%TO.C,C5*%
X114534606Y-110485000D03*
D23*
X112034606Y-110485000D03*
%TD*%
%TO.C,C6*%
X111907606Y-119248000D03*
D22*
X114407606Y-119248000D03*
%TD*%
D23*
%TO.C,C9*%
X150661000Y-126106000D03*
D22*
X153161000Y-126106000D03*
%TD*%
D24*
%TO.C,R1*%
X125785000Y-107310000D03*
X127785000Y-107310000D03*
%TD*%
D25*
%TO.C,Q2*%
X119165000Y-121280000D03*
D26*
X120435000Y-120010000D03*
X121705000Y-121280000D03*
%TD*%
D25*
%TO.C,Q3*%
X125007000Y-121280000D03*
D26*
X126277000Y-120010000D03*
X127547000Y-121280000D03*
%TD*%
D27*
%TO.C,J10*%
X119546000Y-126868000D03*
D28*
X117006000Y-126868000D03*
X114466000Y-126868000D03*
%TD*%
D27*
%TO.C,J11*%
X128436000Y-126868000D03*
D28*
X125896000Y-126868000D03*
X123356000Y-126868000D03*
%TD*%
D27*
%TO.C,J12*%
X137326000Y-126868000D03*
D28*
X134786000Y-126868000D03*
X132246000Y-126868000D03*
%TD*%
D27*
%TO.C,J13*%
X146216000Y-126868000D03*
D28*
X143676000Y-126868000D03*
X141136000Y-126868000D03*
%TD*%
D29*
%TO.C,RV1*%
X157519000Y-121661000D03*
X160059000Y-119121000D03*
X162599000Y-121661000D03*
%TD*%
D24*
%TO.C,R4*%
X157789000Y-116581000D03*
X159789000Y-116581000D03*
%TD*%
D30*
%TO.C,R3*%
X159789000Y-114676000D03*
X157789000Y-114676000D03*
%TD*%
D31*
%TO.C,Q1*%
X161781000Y-108961000D03*
D32*
X161781000Y-111501000D03*
X161781000Y-114041000D03*
%TD*%
D33*
%TO.C,J2*%
X109005000Y-95880000D03*
D28*
X111545000Y-95880000D03*
X114085000Y-95880000D03*
X116625000Y-95880000D03*
%TD*%
D34*
%TO.C,U6*%
X106680000Y-117851000D03*
D35*
X106680000Y-115311000D03*
D36*
X106680000Y-112771000D03*
%TD*%
D13*
%TO.C,C8*%
X147512700Y-120645000D03*
X132512700Y-120645000D03*
%TD*%
D37*
%TO.C,C3*%
X155360000Y-94842500D03*
X155360000Y-96917500D03*
%TD*%
D27*
%TO.C,J9*%
X110656000Y-126868000D03*
D28*
X108116000Y-126868000D03*
%TD*%
D33*
%TO.C,J1*%
X102655000Y-95880000D03*
D28*
X105195000Y-95880000D03*
%TD*%
D37*
%TO.C,C2*%
X153455000Y-96917500D03*
X153455000Y-94842500D03*
%TD*%
D38*
%TO.C,U4*%
X150285000Y-108597700D03*
D39*
X147745000Y-108597700D03*
X147745000Y-116217700D03*
X150285000Y-116217700D03*
%TD*%
D40*
%TO.C,H3*%
X103500000Y-126500000D03*
%TD*%
D33*
%TO.C,J3*%
X120435000Y-95880000D03*
D28*
X122975000Y-95880000D03*
X125515000Y-95880000D03*
%TD*%
D41*
%TO.C,J4*%
X129325000Y-95880000D03*
D42*
X131865000Y-95880000D03*
D28*
X134405000Y-95880000D03*
%TD*%
D33*
%TO.C,J5*%
X138215000Y-95880000D03*
D28*
X140755000Y-95880000D03*
X143295000Y-95880000D03*
X145835000Y-95880000D03*
X148375000Y-95880000D03*
%TD*%
D13*
%TO.C,C7*%
X142432700Y-120645000D03*
X134932700Y-120645000D03*
%TD*%
D33*
%TO.C,J6*%
X160440000Y-95880000D03*
D28*
X162980000Y-95880000D03*
%TD*%
D40*
%TO.C,H2*%
X161500000Y-103500000D03*
%TD*%
%TO.C,H4*%
X161500000Y-126500000D03*
%TD*%
D17*
%TO.C,J8*%
X119673000Y-108565000D03*
D43*
X119673000Y-111105000D03*
D44*
X119673000Y-113645000D03*
%TD*%
D38*
%TO.C,U5*%
X152827700Y-116195000D03*
D39*
X155367700Y-116195000D03*
X155367700Y-108575000D03*
X152827700Y-108575000D03*
%TD*%
D40*
%TO.C,H1*%
X103500000Y-103500000D03*
%TD*%
D37*
%TO.C,C1*%
X151550000Y-96917500D03*
X151550000Y-94842500D03*
%TD*%
D38*
%TO.C,U2*%
X140120000Y-108587700D03*
D39*
X137580000Y-108587700D03*
X137580000Y-116207700D03*
X140120000Y-116207700D03*
%TD*%
%TO.C,U3*%
X145205000Y-116217700D03*
X142665000Y-116217700D03*
X142665000Y-108597700D03*
D38*
X145205000Y-108597700D03*
%TD*%
%TO.C,U1*%
X135045000Y-108597700D03*
D39*
X132505000Y-108597700D03*
X132505000Y-116217700D03*
X135045000Y-116217700D03*
%TD*%
D37*
%TO.C,C4*%
X157265000Y-94842500D03*
X157265000Y-96917500D03*
%TD*%
M02*
