M48
; DRILL file {KiCad (6.0.9)} date Thu Feb  9 17:36:40 2023
; FORMAT={-:-/ absolute / inch / decimal}
; #@! TF.CreationDate,2023-02-09T17:36:40+01:00
; #@! TF.GenerationSoftware,Kicad,Pcbnew,(6.0.9)
; #@! TF.FileFunction,Plated,1,2,PTH
FMAT,2
INCH
; #@! TA.AperFunction,Plated,PTH,ViaDrill
T1C0.0157
; #@! TA.AperFunction,Plated,PTH,ComponentDrill
T2C0.0295
; #@! TA.AperFunction,Plated,PTH,ViaDrill
T3C0.0315
; #@! TA.AperFunction,Plated,PTH,ComponentDrill
T4C0.0315
; #@! TA.AperFunction,Plated,PTH,ComponentDrill
T5C0.0354
; #@! TA.AperFunction,Plated,PTH,ComponentDrill
T6C0.0394
; #@! TA.AperFunction,Plated,PTH,ComponentDrill
T7C0.0433
; #@! TA.AperFunction,Plated,PTH,ComponentDrill
T8C0.0469
; #@! TA.AperFunction,Plated,PTH,ViaDrill
T9C0.0472
; #@! TA.AperFunction,Plated,PTH,ComponentDrill
T10C0.0472
; #@! TA.AperFunction,Plated,PTH,ComponentDrill
T11C0.1063
%
G90
G05
T1
X3.98Y-3.8498
X3.9815Y-3.7048
X3.9815Y-4.5398
X3.9815Y-4.8698
X3.9815Y-5.0748
X3.9865Y-4.2198
X4.1015Y-3.7048
X4.1265Y-4.5398
X4.2Y-5.075
X4.2165Y-4.2248
X4.2715Y-4.5398
X4.2765Y-4.3748
X4.2765Y-4.7098
X4.3115Y-3.9548
X4.3315Y-4.2248
X4.3415Y-3.8398
X4.3465Y-4.7198
X4.3515Y-4.3548
X4.4015Y-4.2848
X4.4165Y-4.7698
X4.4415Y-3.8398
X4.45Y-5.075
X4.4593Y-4.5176
X4.4665Y-4.8548
X4.5165Y-4.1798
X4.5415Y-3.8398
X4.6165Y-3.9548
X4.6265Y-4.8548
X4.6365Y-3.8398
X4.6665Y-4.1798
X4.6865Y-4.6598
X4.7Y-5.075
X4.7415Y-3.8398
X4.7415Y-4.6148
X4.7665Y-4.5548
X4.7965Y-3.9498
X4.8015Y-4.8548
X4.8099Y-4.2748
X4.8165Y-4.6698
X4.8865Y-4.6048
X4.8915Y-3.8398
X4.8965Y-4.4698
X4.9065Y-4.6648
X4.9115Y-5.0748
X4.9165Y-4.1798
X4.9702Y-4.3399
X4.9715Y-4.4248
X4.9715Y-4.635
X4.975Y-4.8698
X4.9865Y-3.9498
X4.9983Y-4.4536
X5.0165Y-4.0748
X5.0465Y-4.6698
X5.0916Y-4.5271
X5.0965Y-4.3225
X5.1146Y-4.2379
X5.1165Y-4.0748
X5.1226Y-5.0748
X5.1265Y-4.6698
X5.1415Y-3.8398
X5.1987Y-4.4351
X5.2165Y-4.3348
X5.3165Y-3.9598
X5.3165Y-4.0748
X5.3365Y-4.1748
X5.4165Y-3.9598
X5.4415Y-3.8398
X5.5115Y-4.1998
X5.5365Y-3.9598
X5.6165Y-4.3503
X5.6165Y-4.0748
X5.6165Y-4.4348
X5.6665Y-3.9598
X5.6915Y-3.8348
X5.7665Y-3.9598
X5.7915Y-3.8348
X5.8665Y-4.1998
X5.9165Y-3.959
X5.9165Y-4.0748
X5.9165Y-4.3348
X5.9665Y-3.8598
X6.0415Y-3.8598
X6.1165Y-3.8598
X6.1165Y-4.0748
X6.1665Y-4.5147
X6.1915Y-3.8598
X6.2315Y-3.9498
X6.2515Y-3.7048
X6.2765Y-3.9948
X6.2865Y-4.2048
X6.45Y-3.8498
X6.45Y-3.95
X6.4515Y-3.7048
X6.4515Y-4.1748
T2
X4.6915Y-4.7748
X4.7415Y-4.7248
X4.7915Y-4.7748
X4.9215Y-4.7748
X4.9715Y-4.7248
X5.0215Y-4.7748
T3
X6.1465Y-4.7398
T4
X4.4058Y-4.6948
X4.4108Y-4.3498
X4.5042Y-4.6948
X4.5092Y-4.3498
X5.2167Y-4.2755
X5.2167Y-4.5755
X5.3167Y-4.2755
X5.3167Y-4.5755
X5.4165Y-4.2751
X5.4165Y-4.5751
X5.5165Y-4.2751
X5.5165Y-4.5751
X5.6167Y-4.2755
X5.6167Y-4.5755
X5.7167Y-4.2755
X5.7167Y-4.5755
X5.8167Y-4.2755
X5.8167Y-4.5755
X5.9167Y-4.2755
X5.9167Y-4.5755
X5.9315Y-4.9648
X6.0168Y-4.2746
X6.0168Y-4.5746
X6.03Y-4.9648
X6.1168Y-4.2746
X6.1168Y-4.5746
X6.2015Y-4.7898
X6.3015Y-4.6898
X6.4015Y-4.7898
T5
X4.8665Y-4.5348
X4.9665Y-4.5348
T6
X4.2Y-4.4398
X4.2Y-4.5398
X4.2Y-4.6398
X4.2665Y-4.0248
X4.2665Y-4.1248
X4.3665Y-4.0248
X4.3665Y-4.1248
X4.4665Y-4.0248
X4.4665Y-4.1248
X4.5665Y-4.0248
X4.5665Y-4.1248
X4.6665Y-4.0248
X4.6665Y-4.1248
X4.7115Y-4.2742
X4.7115Y-4.3742
X4.7115Y-4.4742
X4.7665Y-4.0248
X4.7665Y-4.1248
X4.8665Y-4.0248
X4.8665Y-4.1248
X4.9665Y-4.0248
X4.9665Y-4.1248
X5.0665Y-4.0248
X5.0665Y-4.1248
X5.1665Y-4.0248
X5.1665Y-4.1248
X5.217Y-4.7498
X5.2665Y-4.0248
X5.2665Y-4.1248
X5.3123Y-4.7498
X5.3665Y-4.0248
X5.3665Y-4.1248
X5.4665Y-4.0248
X5.4665Y-4.1248
X5.5665Y-4.0248
X5.5665Y-4.1248
X5.6076Y-4.7498
X5.6665Y-4.0248
X5.6665Y-4.1248
X5.7665Y-4.0248
X5.7665Y-4.1248
X5.8076Y-4.7498
X5.8665Y-4.0248
X5.8665Y-4.1248
X5.9665Y-4.0248
X5.9665Y-4.1248
X6.0665Y-4.0248
X6.0665Y-4.1248
X6.1665Y-4.0248
X6.1665Y-4.1248
X6.1965Y-5.0548
T7
X6.3693Y-4.2898
X6.3693Y-4.3898
X6.3693Y-4.4898
T8
X4.0415Y-3.7748
X4.1415Y-3.7748
X4.2565Y-4.9948
X4.2915Y-3.7748
X4.3565Y-4.9948
X4.3915Y-3.7748
X4.4915Y-3.7748
X4.5065Y-4.9948
X4.5915Y-3.7748
X4.6065Y-4.9948
X4.7065Y-4.9948
X4.7415Y-3.7748
X4.8415Y-3.7748
X4.8565Y-4.9948
X4.9415Y-3.7748
X4.9565Y-4.9948
X5.0565Y-4.9948
X5.0915Y-3.7748
X5.1915Y-3.7748
X5.2065Y-4.9948
X5.2915Y-3.7748
X5.3065Y-4.9948
X5.4065Y-4.9948
X5.4415Y-3.7748
X5.5415Y-3.7748
X5.5565Y-4.9948
X5.6415Y-3.7748
X5.6565Y-4.9948
X5.7415Y-3.7748
X5.7565Y-4.9948
X5.8415Y-3.7748
X6.3165Y-3.7748
X6.4165Y-3.7748
T9
X4.1065Y-4.7898
X4.1115Y-4.2948
X4.5865Y-4.3498
X4.5865Y-4.5248
X4.5865Y-4.6948
X6.0565Y-4.4198
T10
X5.0965Y-4.4248
X6.2965Y-4.4248
T11
X4.0748Y-4.0748
X4.0748Y-4.9803
X6.3583Y-4.0748
X6.3583Y-4.9803
T0
M30
